<svg width="50" height="45" viewBox="0 0 50 45" fill="none" xmlns="http://www.w3.org/2000/svg">
<path d="M12.451 8.73248C10.5235 8.70349 8.96284 10.2054 8.94066 12.1088C8.90959 13.8977 10.3504 15.4648 12.2838 15.5155C14.2602 15.5677 15.8208 14.0789 15.843 12.1726C15.8667 10.2967 14.3534 8.76148 12.451 8.73248ZM12.3785 14.1427C11.2469 14.1441 10.3179 13.225 10.3223 12.1088C10.3253 11.0346 11.2765 10.1053 12.3667 10.1082C13.525 10.1111 14.451 10.9983 14.4569 12.1102C14.4628 13.2439 13.5427 14.1427 12.3785 14.1427ZM12.451 8.73248C10.5235 8.70349 8.96284 10.2054 8.94066 12.1088C8.90959 13.8977 10.3504 15.4648 12.2838 15.5155C14.2602 15.5677 15.8208 14.0789 15.843 12.1726C15.8667 10.2967 14.3534 8.76148 12.451 8.73248ZM12.3785 14.1427C11.2469 14.1441 10.3179 13.225 10.3223 12.1088C10.3253 11.0346 11.2765 10.1053 12.3667 10.1082C13.525 10.1111 14.451 10.9983 14.4569 12.1102C14.4628 13.2439 13.5427 14.1427 12.3785 14.1427ZM12.0679 3.83113C7.72764 3.98915 3.93179 7.42633 3.92144 12.1247C3.91108 16.8768 7.87557 20.4473 12.3711 20.4256C16.8963 20.472 20.8918 16.871 20.8681 12.0696C20.846 7.41473 16.8874 3.65427 12.0679 3.83113ZM12.3711 19.0556C8.45101 19.0498 5.28682 15.9287 5.3164 12.0566C5.34303 8.26859 8.53681 5.14454 12.5279 5.19383C16.3075 5.24022 19.488 8.38166 19.4776 12.1305C19.4673 15.9664 16.2912 19.0614 12.3711 19.0556ZM12.451 8.73248C10.5235 8.70349 8.96284 10.2054 8.94066 12.1088C8.90959 13.8977 10.3504 15.4648 12.2838 15.5155C14.2602 15.5677 15.8208 14.0789 15.843 12.1726C15.8667 10.2967 14.3534 8.76148 12.451 8.73248ZM12.3785 14.1427C11.2469 14.1441 10.3179 13.225 10.3223 12.1088C10.3253 11.0346 11.2765 10.1053 12.3667 10.1082C13.525 10.1111 14.451 10.9983 14.4569 12.1102C14.4628 13.2439 13.5427 14.1427 12.3785 14.1427ZM12.0679 3.83113C7.72764 3.98915 3.93179 7.42633 3.92144 12.1247C3.91108 16.8768 7.87557 20.4473 12.3711 20.4256C16.8963 20.472 20.8918 16.871 20.8681 12.0696C20.846 7.41473 16.8874 3.65427 12.0679 3.83113ZM12.3711 19.0556C8.45101 19.0498 5.28682 15.9287 5.3164 12.0566C5.34303 8.26859 8.53681 5.14454 12.5279 5.19383C16.3075 5.24022 19.488 8.38166 19.4776 12.1305C19.4673 15.9664 16.2912 19.0614 12.3711 19.0556ZM12.451 8.73248C10.5235 8.70349 8.96284 10.2054 8.94066 12.1088C8.90959 13.8977 10.3504 15.4648 12.2838 15.5155C14.2602 15.5677 15.8208 14.0789 15.843 12.1726C15.8667 10.2967 14.3534 8.76148 12.451 8.73248ZM12.3785 14.1427C11.2469 14.1441 10.3179 13.225 10.3223 12.1088C10.3253 11.0346 11.2765 10.1053 12.3667 10.1082C13.525 10.1111 14.451 10.9983 14.4569 12.1102C14.4628 13.2439 13.5427 14.1427 12.3785 14.1427ZM49.9761 13.5077C49.7246 12.2262 48.7468 11.4376 47.408 11.4376C45.5249 11.4376 43.6418 11.4419 41.7586 11.4419C36.732 11.4419 31.7069 11.4405 26.6803 11.4405H24.7365C24.7365 11.0708 24.7513 10.7316 24.7335 10.3953C24.6995 9.769 24.4406 9.26597 23.803 9.05866C23.5161 8.96588 23.1921 8.98763 22.8888 8.93689C22.8031 8.92094 22.6906 8.84991 22.6551 8.77452C22.4066 8.24249 22.1803 7.70321 21.9362 7.16828C21.7602 6.77977 21.7542 6.78267 22.0501 6.47679C22.6877 5.81429 22.6773 4.98797 22.0102 4.35446C21.269 3.64992 20.525 2.94973 19.769 2.25968C19.3785 1.90596 18.9066 1.81463 18.3903 1.94075C18.025 2.02918 17.7572 2.25533 17.5324 2.52932C17.4022 2.68879 17.2986 2.68299 17.1226 2.60036C16.7409 2.42205 16.3474 2.26258 15.9525 2.11616C15.4332 1.92336 15.4288 1.93061 15.4155 1.38118C15.3948 0.624448 14.7631 0.00543628 13.9983 0.00253693C12.9214 -0.000362419 11.8445 -0.00181209 10.7691 0.00398661C10.1951 0.00688596 9.74983 0.266378 9.52941 0.775214C9.40219 1.0666 9.39776 1.41307 9.36521 1.7378C9.35042 1.88567 9.31196 1.95235 9.16107 2.00744C8.62705 2.2017 8.09598 2.4061 7.57527 2.63225C7.04865 2.8613 7.23356 2.91928 6.80457 2.50758C6.18327 1.91321 5.30457 1.89436 4.69067 2.49163C3.9451 3.21647 3.20694 3.94855 2.47617 4.68789C2.10487 5.06335 2.00872 5.52 2.12262 6.03029C2.20694 6.40141 2.45103 6.6609 2.72617 6.89719C2.85191 7.00592 2.86079 7.09435 2.7883 7.24367C2.57676 7.67857 2.38298 8.12362 2.19363 8.56867C2.11079 8.76293 2.11227 9.04272 1.97174 9.14709C1.82085 9.26017 1.54718 9.21523 1.32529 9.23117C0.609313 9.28336 0.00428509 9.89222 0.00132652 10.5953C-0.00311134 11.6318 0.00428509 12.6698 0.0131608 13.7078C0.0161194 14.0963 0.149255 14.4413 0.427361 14.7225C0.76168 15.0632 1.18328 15.1995 1.65369 15.1589C1.93327 15.1343 2.05162 15.2227 2.14481 15.4894C2.31937 15.9925 2.52499 16.4911 2.77647 16.9608C2.92144 17.2305 2.89629 17.3726 2.67884 17.5784C1.96878 18.254 1.98357 19.1194 2.68919 19.7993C3.35783 20.4415 4.03682 21.0765 4.6951 21.7288C5.17291 22.2043 5.72617 22.3565 6.4022 22.1797C6.40812 22.229 6.41403 22.2623 6.41403 22.2957C6.41551 23.2974 6.41551 24.2977 6.41699 25.2994C6.42291 29.6629 6.43031 34.0264 6.43327 38.3899C6.43327 39.6381 6.41847 40.8877 6.41995 42.1374C6.41995 42.3476 6.44066 42.5636 6.49392 42.7665C6.78977 43.9205 7.73356 44.6337 8.95693 44.6366C10.5028 44.641 12.0472 44.6409 13.593 44.6395C17.0723 44.6395 20.5531 44.6352 24.0338 44.6352C29.1033 44.6352 34.1728 44.6366 39.2409 44.6381C42.0012 44.6395 44.7616 44.6352 47.5219 44.6424C48.8548 44.6468 49.9983 43.5624 49.9983 42.2664C49.9997 32.7812 49.9997 23.2959 49.9983 13.8121C49.9983 13.7107 49.9953 13.6063 49.9761 13.5077ZM6.1877 20.6082C6.09155 20.7054 6.01019 20.8155 5.8948 20.9518C5.08859 20.1762 4.3238 19.4412 3.53386 18.6831C3.66256 18.5526 3.78386 18.425 3.90812 18.3003C4.36818 17.835 4.44658 17.1942 4.16404 16.6071C3.8815 16.0171 3.61966 15.4169 3.38446 14.8081C3.13741 14.1659 2.61966 13.7861 1.90073 13.7861C1.40665 13.7861 1.40665 13.7861 1.40517 13.3062C1.40369 12.4726 1.39925 11.6391 1.39777 10.8055C1.39777 10.7475 1.40665 10.6881 1.41405 10.5765C1.59452 10.5765 1.77351 10.5779 1.95103 10.5765C2.59895 10.5692 3.1167 10.172 3.33712 9.57619C3.56345 8.96443 3.81049 8.35847 4.0886 7.767C4.39333 7.11755 4.29422 6.46954 3.75724 5.981C3.65664 5.88822 3.53682 5.81574 3.40664 5.72006C4.24244 4.93578 5.01611 4.2095 5.85191 3.42522C5.91256 3.5035 6.00427 3.65282 6.12853 3.76879C6.61818 4.23269 7.2306 4.30662 7.8519 4.03408C8.48208 3.75865 9.12113 3.5006 9.7661 3.25851C10.3608 3.03671 10.7276 2.54382 10.7483 1.86682C10.7528 1.70736 10.7483 1.54934 10.7483 1.37248H13.9895C14.0102 1.64647 14.0102 1.91031 14.0546 2.16545C14.1507 2.72793 14.5102 3.0744 15.0472 3.27301C15.5871 3.47306 16.1315 3.67022 16.6581 3.90216C17.2883 4.1776 17.9392 4.07902 18.4229 3.59773C18.5383 3.48466 18.6596 3.37593 18.7957 3.24836C19.5708 3.97175 20.3489 4.69514 21.1359 5.42867C20.9732 5.60698 20.8178 5.76355 20.6758 5.93316C20.2971 6.38836 20.2823 7.00882 20.556 7.53215C20.8519 8.09608 21.1181 8.67885 21.3489 9.27321C21.6093 9.94731 22.0989 10.3184 22.8341 10.3141H23.3415V13.5237C23.167 13.5237 22.9791 13.5179 22.7912 13.5251C22.2084 13.5469 21.7158 13.9078 21.5042 14.4428C21.2335 15.1299 20.9495 15.8112 20.6803 16.4984C20.4599 17.0652 20.5619 17.5813 20.9761 18.0336C21.1034 18.1728 21.2394 18.3032 21.3948 18.4598C20.6492 19.218 19.8992 19.9762 19.1433 20.7445C18.985 20.5981 18.8504 20.4662 18.7084 20.3429C18.2232 19.924 17.596 19.8718 17.0161 20.1458C16.417 20.4285 15.806 20.6894 15.1862 20.9228C14.5412 21.1664 14.1655 21.652 14.1655 22.3348V22.8436C14.0412 22.8538 13.9318 22.8683 13.8223 22.8697C12.9199 22.8828 12.0176 22.8886 11.1152 22.906C10.9303 22.9089 10.8711 22.8436 10.883 22.6668C10.8948 22.4899 10.9022 22.3058 10.8682 22.1333C10.7513 21.5476 10.3815 21.1866 9.81048 20.9866C9.20989 20.7764 8.61077 20.5517 8.02942 20.2936C7.33415 19.9849 6.70989 20.0704 6.1877 20.6082ZM47.3932 43.2841C38.2202 43.2768 29.0456 43.2797 19.8711 43.2797H9.03977C8.26166 43.2797 7.81196 42.8405 7.81196 42.0808V24.4484C7.81196 23.7004 7.80752 22.9524 7.80456 22.2043V21.7477C8.37853 21.955 8.91255 22.1478 9.4658 22.3478C9.48355 22.5667 9.48799 22.8132 9.52645 23.0538C9.63888 23.7613 10.1921 24.2542 10.9155 24.2571C11.9821 24.26 13.0501 24.2527 14.1167 24.2179C14.9998 24.1889 15.5619 23.5815 15.5649 22.7103C15.5679 22.258 15.5738 22.2725 16.0161 22.097C16.5294 21.8926 17.0338 21.6694 17.5309 21.4316C17.6892 21.3563 17.775 21.3461 17.9022 21.4795C18.1758 21.768 18.4806 22.0115 18.9051 22.0709C19.3445 22.1318 19.7513 22.0579 20.0634 21.7549C20.8696 20.9721 21.6714 20.182 22.4391 19.3615C22.9554 18.8106 22.8829 17.951 22.3386 17.4233C21.9732 17.0681 21.9835 17.0725 22.1817 16.5941C22.3874 16.1012 22.5752 15.5996 22.7542 15.0966C22.8075 14.9472 22.8726 14.8777 23.0412 14.8748C23.2735 14.8704 23.5116 14.8632 23.735 14.8066C24.3593 14.6472 24.7868 14.0832 24.7897 13.4526C24.7912 13.2497 24.7897 13.0467 24.7897 12.8162H25.451C31.3356 12.8148 37.2202 12.8148 43.1048 12.8133C44.5634 12.8133 46.0205 12.8148 47.479 12.8162C48.1477 12.8162 48.5989 13.2598 48.5989 13.9209V35.5094C48.5989 37.7028 48.5826 39.8976 48.6092 42.0924C48.6166 42.7709 48.1107 43.2841 47.3932 43.2841ZM20.8681 12.0696C20.846 7.41473 16.8874 3.65427 12.0679 3.83113C7.72764 3.98915 3.93179 7.42633 3.92144 12.1247C3.91108 16.8768 7.87557 20.4473 12.3711 20.4256C16.8963 20.472 20.8918 16.871 20.8681 12.0696ZM5.3164 12.0566C5.34303 8.26859 8.53681 5.14454 12.5279 5.19383C16.3075 5.24022 19.488 8.38166 19.4776 12.1305C19.4673 15.9664 16.2912 19.0614 12.3711 19.0556C8.45101 19.0498 5.28682 15.9287 5.3164 12.0566ZM15.843 12.1726C15.8667 10.2967 14.3534 8.76148 12.451 8.73248C10.5235 8.70349 8.96284 10.2054 8.94066 12.1088C8.90959 13.8977 10.3504 15.4648 12.2838 15.5155C14.2602 15.5677 15.8208 14.0789 15.843 12.1726ZM10.3223 12.1088C10.3253 11.0346 11.2765 10.1053 12.3667 10.1082C13.525 10.1111 14.451 10.9983 14.4569 12.1102C14.4628 13.2439 13.5427 14.1427 12.3785 14.1427C11.2469 14.1441 10.3179 13.225 10.3223 12.1088ZM12.451 8.73248C10.5235 8.70349 8.96284 10.2054 8.94066 12.1088C8.90959 13.8977 10.3504 15.4648 12.2838 15.5155C14.2602 15.5677 15.8208 14.0789 15.843 12.1726C15.8667 10.2967 14.3534 8.76148 12.451 8.73248ZM12.3785 14.1427C11.2469 14.1441 10.3179 13.225 10.3223 12.1088C10.3253 11.0346 11.2765 10.1053 12.3667 10.1082C13.525 10.1111 14.451 10.9983 14.4569 12.1102C14.4628 13.2439 13.5427 14.1427 12.3785 14.1427ZM12.451 8.73248C10.5235 8.70349 8.96284 10.2054 8.94066 12.1088C8.90959 13.8977 10.3504 15.4648 12.2838 15.5155C14.2602 15.5677 15.8208 14.0789 15.843 12.1726C15.8667 10.2967 14.3534 8.76148 12.451 8.73248ZM12.3785 14.1427C11.2469 14.1441 10.3179 13.225 10.3223 12.1088C10.3253 11.0346 11.2765 10.1053 12.3667 10.1082C13.525 10.1111 14.451 10.9983 14.4569 12.1102C14.4628 13.2439 13.5427 14.1427 12.3785 14.1427Z" fill="black"/>
<path d="M12.4507 8.73137C10.5231 8.70238 8.9625 10.2042 8.94031 12.1077C8.90925 13.8966 10.3501 15.4637 12.2835 15.5144C14.2598 15.5666 15.8205 14.0778 15.8427 12.1714C15.8663 10.2956 14.353 8.76036 12.4507 8.73137ZM12.3782 14.1416C11.2465 14.143 10.3175 13.2239 10.322 12.1077C10.3249 11.0335 11.2761 10.1042 12.3663 10.1071C13.5246 10.11 14.4507 10.9972 14.4566 12.1091C14.4625 13.2428 13.5424 14.1416 12.3782 14.1416Z" fill="black"/>
<path d="M12.0676 3.83021C7.72737 3.98823 3.93152 7.42541 3.92116 12.1238C3.91081 16.8758 7.8753 20.4464 12.3708 20.4246C16.896 20.471 20.8915 16.87 20.8679 12.0687C20.8457 7.41381 16.8871 3.65335 12.0676 3.83021ZM12.3708 19.0547C8.45074 19.0489 5.28654 15.9278 5.31613 12.0557C5.34276 8.26767 8.53654 5.14362 12.5277 5.19291C16.3072 5.2393 19.4877 8.38074 19.4773 12.1296C19.467 15.9654 16.291 19.0605 12.3708 19.0547Z" fill="black"/>
<path d="M37.9328 32.6931C36.449 33.3846 35.0008 34.1457 33.5393 34.8822C33.0171 35.1445 32.7079 34.9604 32.7064 34.3791V34.1907C32.6177 33.8282 32.8455 33.6166 33.2109 33.4484C34.0023 33.0831 34.7789 32.6873 35.563 32.309C35.7745 32.2075 35.9712 32.0886 35.9712 31.832C35.9712 31.5783 35.7848 31.4537 35.5703 31.3507C34.7316 30.9463 33.8987 30.5302 33.0585 30.1287C32.8085 30.0098 32.6887 29.8387 32.705 29.5691C32.7138 29.4328 32.7035 29.2966 32.7079 29.1603C32.7183 28.7384 33.0496 28.5369 33.4372 28.7297C34.8026 29.4111 36.165 30.0968 37.5274 30.781C37.7745 30.9042 38.0215 31.0275 38.2686 31.1492C38.4579 31.242 38.5304 31.3913 38.5541 31.5972C38.6162 32.1162 38.4653 32.4453 37.9328 32.6931Z" fill="black"/>
<path d="M25.7553 34.1107C25.748 34.2368 25.7583 34.3659 25.7524 34.492C25.7332 34.937 25.4092 35.124 25.0024 34.9211C24.3855 34.6137 23.7701 34.3035 23.1548 33.9933C22.1873 33.5033 21.2199 33.0104 20.2494 32.5248C20.0128 32.4073 19.8959 32.2392 19.9092 31.9797C19.9136 31.8695 19.9122 31.7593 19.9077 31.6492C19.9003 31.4201 20.0024 31.2563 20.2051 31.1534C21.7968 30.3503 23.3885 29.5442 24.9817 28.7455C25.4181 28.528 25.7376 28.7194 25.7583 29.1963C25.7613 29.2645 25.7583 29.3326 25.7583 29.4602C25.8308 29.811 25.6385 30.0386 25.2613 30.2096C24.461 30.5735 23.6814 30.9809 22.89 31.3636C22.6829 31.4636 22.5098 31.5926 22.5127 31.8347C22.5157 32.0623 22.6784 32.1913 22.8781 32.2885C23.7051 32.69 24.5261 33.1061 25.3574 33.4975C25.6355 33.6294 25.7731 33.8092 25.7553 34.1107Z" fill="black"/>
<path d="M39.7257 13.4863C38.5083 13.482 37.4979 14.4765 37.4994 15.6739C37.5009 16.8887 38.4905 17.8687 39.7154 17.8687C40.9624 17.8687 41.9757 16.8902 41.9772 15.6841C41.9772 14.475 40.9683 13.4892 39.7257 13.4863ZM39.739 16.493C39.2612 16.4959 38.9032 16.145 38.9032 15.6754C38.9032 15.2303 39.2686 14.8635 39.7198 14.8563C40.1813 14.849 40.5645 15.2158 40.5719 15.671C40.5793 16.1219 40.2035 16.4915 39.739 16.493Z" fill="black"/>
<path d="M34.4388 13.4854C33.2139 13.4825 32.1902 14.4697 32.1858 15.6555C32.1828 16.8761 33.1814 17.8677 34.4166 17.8692C35.6518 17.8706 36.6606 16.8993 36.6651 15.7034C36.668 14.4798 35.6725 13.4883 34.4388 13.4854ZM34.424 16.4949C33.958 16.492 33.5867 16.1238 33.5926 15.6715C33.5985 15.2163 33.9831 14.8495 34.4447 14.8568C34.9032 14.8654 35.2657 15.2409 35.2598 15.7019C35.2553 16.1455 34.884 16.4963 34.424 16.4949Z" fill="black"/>
<path d="M44.8381 17.8677C43.6088 17.8663 42.6014 16.8834 42.6029 15.6874C42.6044 14.4726 43.6133 13.4825 44.847 13.4854C46.0822 13.4883 47.0837 14.4798 47.0807 15.6976C47.0763 16.8964 46.0718 17.8692 44.8381 17.8677ZM45.6783 15.6773C45.6813 15.2395 45.3056 14.8625 44.8603 14.8568C44.3928 14.851 44.0127 15.2134 44.0082 15.67C44.0038 16.1252 44.3795 16.5007 44.8381 16.4992C45.3085 16.4992 45.6754 16.1383 45.6783 15.6773Z" fill="black"/>
<path d="M31.5408 27.6221C30.8854 29.2878 30.2286 30.9535 29.5703 32.6192C29.2686 33.3846 28.9638 34.1486 28.6621 34.914C28.4402 35.4765 28.4402 35.4765 27.8218 35.4779C27.0541 35.4794 26.9387 35.3185 27.2138 34.6168C28.1665 32.1828 29.1221 29.7517 30.0733 27.3177C30.1739 27.0597 30.347 26.9408 30.6251 26.9553C30.773 26.9625 30.9209 26.9553 31.0674 26.9567C31.5082 26.9596 31.6976 27.2235 31.5408 27.6221Z" fill="black"/>
<path d="M12.0675 3.83021C7.72725 3.98823 3.9314 7.42541 3.92104 12.1238C3.91069 16.8758 7.87517 20.4464 12.3707 20.4246C16.8959 20.471 20.8914 16.87 20.8677 12.0687C20.8456 7.41381 16.887 3.65335 12.0675 3.83021ZM12.3707 19.0547C8.45062 19.0489 5.28642 15.9278 5.31601 12.0557C5.34263 8.26767 8.53642 5.14362 12.5275 5.19291C16.3071 5.2393 19.4876 8.38074 19.4772 12.1296C19.4669 15.9654 16.2908 19.0605 12.3707 19.0547Z" fill="black"/>
<path d="M12.4507 8.73137C10.5231 8.70238 8.9625 10.2042 8.94031 12.1077C8.90925 13.8966 10.3501 15.4637 12.2835 15.5144C14.2598 15.5666 15.8205 14.0778 15.8427 12.1714C15.8663 10.2956 14.353 8.76036 12.4507 8.73137ZM12.3782 14.1416C11.2465 14.143 10.3175 13.2239 10.322 12.1077C10.3249 11.0335 11.2761 10.1042 12.3663 10.1071C13.5246 10.11 14.4507 10.9972 14.4566 12.1091C14.4625 13.2428 13.5424 14.1416 12.3782 14.1416Z" fill="black"/>
</svg>
