<svg width="51" height="52" viewBox="0 0 51 52" fill="none" xmlns="http://www.w3.org/2000/svg">
<g clip-path="url(#clip0)">
<path d="M50.0428 17.2603L49.983 17.38L49.6242 17.799L49.5047 18.218V34.3201H1.19517V4.27084C1.19517 2.7145 2.21158 1.75675 3.70631 1.69689H13.6911H19.0721L19.1319 1.75675L19.3112 1.69689H20.2081L20.2679 1.75675H33.4812L33.8997 1.3976V0.918725L33.7204 0.679289L33.6606 0.619429L33.6008 0.55957H25.888V0.619429H20.0885V0.55957H19.8493H18.0557V0.619429H13.6313H3.04863L2.98884 0.679289C1.43433 0.918725 -0.000610352 2.29549 -0.000610352 4.27084C-0.000610352 5.76732 -0.000610352 7.2638 -0.000610352 8.76027C-0.000610352 11.7532 -0.000610352 14.6863 -0.000610352 17.6194V36.056C-0.000610352 36.6546 0.178757 37.3131 0.477701 37.8518C1.19517 39.049 2.33116 39.5877 3.64652 39.5877H18.5938L18.4742 40.7251V40.9046L18.1752 42.8201V42.88L18.1154 43.1793V43.299L18.0557 43.4786V43.5384L17.8763 44.7955L17.7567 44.9152L17.8165 44.9751L17.6969 46.1124V46.2321V46.292L17.099 47.0103H16.9795C15.0662 47.6687 13.5715 48.806 12.3757 50.3025L12.1963 50.9011V51.0208L12.7942 51.3201H12.854H13.0334H37.9654L38.5035 51.0807L38.6231 51.0208L38.3839 50.3025V50.2427C37.0686 48.6265 35.3945 47.549 33.3616 46.9504L33.1225 46.711C32.8235 44.7356 32.5246 42.8201 32.2257 40.8448L32.0463 39.6476H47.0533C49.1459 39.6476 50.6407 38.1511 50.7004 35.9962V17.7391L50.1623 17.3201L50.0428 17.2603ZM33.6606 1.21802V1.27788V1.33774V1.21802ZM36.65 50.1229H14.1096C15.3054 48.9258 16.7403 48.2075 18.3546 47.968L19.9091 47.8483C22.3605 47.8483 24.8716 47.8483 27.3827 47.8483C28.6383 47.8483 29.8939 47.8483 31.0897 47.8483C33.2421 47.8483 35.0955 48.6265 36.65 50.1229ZM18.7731 46.711L18.8927 46.1124V45.8729V45.6934L19.0123 44.8553L19.0721 44.9152V44.6159V44.4962L19.4308 41.9821L19.4906 41.7427C19.5504 41.1441 19.67 40.4856 19.7298 39.887L20.0287 39.6476H30.6113L30.9103 39.887C31.2092 41.8025 31.5082 43.718 31.8071 45.6934L31.9865 46.711H18.7731ZM47.2925 38.4504H46.874H3.70631C2.092 38.4504 1.19517 37.4927 1.13538 35.9962V35.5173H9.74499H16.2022H49.4449L49.5047 35.9363C49.5645 37.4328 48.548 38.3906 47.2925 38.4504Z" fill="black"/>
<path d="M36.1117 4.38929L36.8292 4.98788H37.1281C37.726 4.98788 38.3837 4.98788 38.9816 4.98788L39.2207 5.1076L39.6392 6.12521V6.30478L38.0847 7.80126L38.0249 8.87873C39.1609 10.6745 40.7154 12.171 42.5091 13.3682L43.4657 13.2484L44.0636 12.6499L44.9605 11.6921L45.1398 11.6322L46.1562 12.0513L46.3356 12.2907C46.3356 12.8294 46.3356 13.428 46.3356 13.9668V14.5055L46.8139 15.1639C47.8303 15.4034 48.9065 15.5231 50.0425 15.5231L50.461 15.3435L50.6404 14.8048L50.1023 14.3858L48.9065 14.2661L47.5912 14.1463L47.4716 13.9668C47.4716 13.2484 47.4716 12.5301 47.4716 11.8118L46.9335 11.0935C46.515 10.9738 45.9769 10.7344 45.379 10.4949L44.3626 10.6745L43.5853 11.5125L42.8678 12.171C41.6721 11.4527 39.699 9.53718 39.1011 8.45971L40.6557 6.84352L40.835 5.94563C40.6557 5.46676 40.4165 4.98788 40.2371 4.38929L39.4001 3.85056H38.862H37.3075L37.1879 3.73084L37.0683 2.89281L36.9487 1.33647L36.5302 0.618164H36.4704H36.2911H36.2313C35.6932 0.797742 35.753 1.33647 35.753 1.51605L35.8725 2.53366C35.9921 3.13225 36.0519 3.73084 36.1117 4.38929Z" fill="black"/>
<path d="M28.7581 14.2073C27.8613 14.2073 27.2036 14.8059 27.2036 15.7038V17.2003V18.8165C27.2036 19.3552 27.2036 19.9538 27.2036 20.4925C27.2036 21.3904 27.9211 21.9291 28.5788 21.9291H29.5952H30.9105H31.6878C32.2857 21.9291 32.8836 21.9291 33.4815 21.9291L33.9598 21.8693C34.6174 21.6897 34.9762 21.151 34.9762 20.3728V15.7637C34.9762 14.7461 34.3783 14.1475 33.4217 14.1475H28.7581V14.2073ZM33.7804 15.7038V17.2601C33.7804 18.2777 33.7804 19.3552 33.7804 20.3728L33.4217 20.7918C32.6444 20.7918 31.8671 20.7918 31.0899 20.7918H28.6983L28.4592 20.732V20.6721L28.3396 20.4327V19.1756V15.7637L28.7581 15.3446H33.3619L33.7804 15.7038Z" fill="black"/>
<path d="M9.74479 24.4419C8.19027 24.4419 6.63576 24.4419 5.08125 24.4419C4.12462 24.4419 3.52673 25.0405 3.52673 25.9982C3.52673 27.0158 3.52673 28.0334 3.52673 29.1109V30.6672C3.52673 31.625 4.12462 32.2236 5.08125 32.2236H6.21724H6.81513H9.62521C10.7014 32.2236 11.2395 31.6849 11.2395 30.6074V25.9982C11.2993 25.1003 10.7014 24.4419 9.74479 24.4419ZM10.1035 30.6672L9.74479 31.0264C8.19027 31.0264 6.63576 31.0264 5.14104 31.0264L4.72251 30.6672V26.0581L5.14104 25.6391H9.74479L10.1633 26.0581V30.6672H10.1035Z" fill="black"/>
<path d="M28.6983 32.2248H30.2528H31.7476H32.4053H33.4217C34.3185 32.2248 34.9164 31.6262 34.9164 30.7283C34.9164 29.1719 34.9164 27.5557 34.9164 25.9994C34.9164 25.1015 34.3185 24.5029 33.4217 24.5029C31.8672 24.5029 30.2529 24.5029 28.6983 24.5029C27.8015 24.5029 27.2036 25.1015 27.2036 25.9994C27.2036 27.5557 27.2036 29.1121 27.2036 30.6684C27.2036 31.5663 27.8015 32.1649 28.6983 32.2248ZM28.7581 25.6403C30.3126 25.6403 31.8672 25.6403 33.4217 25.6403L33.7804 26.0593V30.7283L33.4217 31.0276C31.8672 31.0276 30.3126 31.0276 28.7581 31.0276L28.3396 30.6684C28.3396 29.1121 28.3396 27.5557 28.3396 25.9994L28.7581 25.6403Z" fill="black"/>
<path d="M11.2993 5.40732C11.2993 4.56929 10.7014 3.9707 9.86437 3.9707C8.25006 3.9707 6.57597 3.9707 4.96167 3.9707C4.12462 3.9707 3.52673 4.62915 3.52673 5.46718V7.02352C3.52673 8.04113 3.52673 9.11859 3.52673 10.1362C3.52673 11.0939 4.12462 11.6925 5.08125 11.6925C5.8585 11.6925 6.63576 11.6925 7.41302 11.6925C8.19027 11.6925 8.96753 11.6925 9.74479 11.6925C10.7014 11.6925 11.2993 11.0939 11.2993 10.1362V8.57986V7.08338C11.2993 6.54465 11.2993 5.94606 11.2993 5.40732ZM10.1035 7.80169C10.1035 8.57986 10.1035 9.35803 10.1035 10.1362L9.74479 10.4954C8.19027 10.4954 6.63576 10.4954 5.14104 10.4954L4.72251 10.0763V5.52704L5.14104 5.10803H9.74479L10.1633 5.52704V7.80169H10.1035Z" fill="black"/>
<path d="M11.2993 15.5841C11.2993 14.8059 10.6416 14.2073 9.86437 14.1475C8.54901 14.1475 6.75534 14.1475 5.02146 14.1475C4.12462 14.1475 3.52673 14.7461 3.52673 15.7038C3.52673 16.482 3.52673 17.2601 3.52673 18.0383C3.52673 18.8165 3.52673 19.5946 3.52673 20.3728C3.52673 21.3904 4.12462 21.9291 5.08125 21.9291H6.63576H8.19027H9.74479L10.8808 21.5101L11.2993 20.3728C11.2993 19.7742 11.2993 19.2355 11.2993 18.6369V17.9186V17.3799C11.2993 16.7813 11.2993 16.1827 11.2993 15.5841ZM9.74479 20.7918H8.19027H5.08125L4.72251 20.3728C4.72251 18.8165 4.72251 17.2601 4.72251 15.7038L5.08125 15.3446C5.97808 15.3446 6.87492 15.3446 7.77175 15.3446C8.42943 15.3446 9.08711 15.3446 9.74479 15.3446L10.1035 15.7038C10.1035 17.2601 10.1035 18.8165 10.1035 20.4327L9.74479 20.7918Z" fill="black"/>
<path d="M25.29 6.9049H25.4095L25.8878 6.36617L25.4095 5.76758H25.1704H17.2184C15.9031 5.76758 14.5877 5.76758 13.2724 5.76758C13.093 5.76758 12.4951 5.76758 12.4951 6.36617L13.2724 6.96476L25.29 6.9049Z" fill="black"/>
<path d="M22.3005 16.062H22.0614C19.1317 16.062 16.2021 16.062 13.2724 16.062H12.9137L12.5549 16.6007L12.9735 17.1395L13.3322 17.1993C14.7671 17.1993 16.2619 17.1993 17.6968 17.1993H22.1212H22.3005L22.7788 16.6606L22.3005 16.062Z" fill="black"/>
<path d="M46.0372 27.4352L46.4557 27.0162L46.3361 26.5373L45.798 26.2979C44.7218 26.2979 43.5859 26.2979 42.4499 26.2979H39.8191C38.8027 26.2979 37.8461 26.2979 36.8297 26.2979L36.3514 26.4774L36.2318 26.8964L36.8297 27.495H36.8895H36.9493H45.7383L46.0372 27.4352ZM46.1568 26.8366V26.8964L46.097 27.0162L46.1568 26.8366Z" fill="black"/>
<path d="M20.3873 27.4352H20.9852H22.181L22.7788 27.1359V26.5971L22.1212 26.2979C20.6264 26.2979 19.1317 26.2979 17.6968 26.2979H13.2126H12.9735L12.5549 26.8366L12.9735 27.4352L13.3322 27.495C15.4846 27.495 17.6968 27.495 19.8492 27.495H20.3873V27.4352ZM22.4799 26.8366V26.9563L22.3603 27.076L22.4799 26.8366Z" fill="black"/>
<path d="M29.2361 9.83703H29.4154L29.834 9.5976L29.8937 9.11872L29.2361 8.69971C28.2794 8.69971 27.3228 8.69971 26.426 8.69971H20.8058H20.5667L20.0286 9.23844L20.4471 9.77717L20.746 9.83703H29.2361Z" fill="black"/>
<path d="M44.6621 17.1993L45.0208 17.0796L45.3197 16.6007L44.8414 16.062H44.6023H44.5425C43.2869 16.062 42.0313 16.062 40.7758 16.062H37.7265H36.7699L36.3514 16.2416L36.2318 16.6007L36.7699 17.1395H36.8895C39.4604 17.1993 42.0313 17.1993 44.6621 17.1993Z" fill="black"/>
<path d="M33.4815 5.76758H33.3619C31.5084 5.76758 29.7147 5.76758 27.8613 5.76758L27.383 5.94716L27.2036 6.36617L27.8613 6.96476H28.1004H30.8507H31.628C32.3455 6.96476 33.1227 6.96476 33.9 6.96476L34.3185 6.78518L34.4979 6.36617L33.9 5.76758H33.4815Z" fill="black"/>
<path d="M13.0332 8.69971L12.5549 9.23844L12.8539 9.77717L13.2126 9.89689H13.2724C13.9899 9.89689 14.7073 9.89689 15.365 9.89689H15.9031C16.4412 9.89689 16.9793 9.89689 17.5772 9.89689L18.0555 9.71731L18.2349 9.2983L17.637 8.69971H13.1528H13.0332Z" fill="black"/>
<path d="M16.1423 29.2319H14.7671H13.5116H13.4518H13.093L12.5549 29.7707L13.0332 30.3693H13.2724H13.3322H17.5174L17.8164 30.3094L18.2349 29.7707L17.8164 29.2319H17.5174H16.1423Z" fill="black"/>
<path d="M37.2482 29.2319H37.1286H36.7699L36.2318 29.7707L36.7699 30.3693H36.8895H36.9493H41.1345H41.3737L41.9118 29.7707L41.3139 29.2319H39.6996H37.2482Z" fill="black"/>
<path d="M36.7101 20.0729H36.8895H36.9493H41.2541L41.7922 19.8933L41.9716 19.4743L41.2541 18.9355C40.5366 18.9355 39.8192 18.9355 39.1017 18.9355H37.3678H36.7699L36.2318 19.5341L36.7101 20.0729Z" fill="black"/>
<path d="M30.1927 19.4147L30.671 19.6541L31.0895 19.4147L31.5679 18.9956L31.807 18.7562L32.3451 18.2175L33.0626 17.4992V16.6611H32.2255L32.0462 16.8407L31.9864 16.9006L30.671 18.2773L30.4916 18.0978L29.9535 17.559L29.1165 17.4992L28.9371 17.9182L29.1165 18.3372L30.1927 19.4147Z" fill="black"/>
<path d="M8.42968 27.0777L6.99474 28.5143L6.81538 28.3348L6.33707 27.796L5.44023 27.7362L5.26086 28.1552L5.50002 28.6341L6.57622 29.7115L6.99474 29.951L7.47306 29.7115L7.95137 29.2327L8.60905 28.6341L9.44609 27.796V26.958H8.60905L8.42968 27.0777Z" fill="black"/>
<path d="M30.133 29.6505L30.6113 29.9498L31.1494 29.6505L32.9431 27.8547L33.0029 27.7949L33.1224 27.6751L33.0627 26.9568L32.2854 26.897L32.106 27.0167L30.6113 28.5132L29.9536 27.8547L29.4753 27.6153L29.1166 27.7949L29.1764 28.6927L30.133 29.6505Z" fill="black"/>
<path d="M8.42976 6.5455L6.99482 8.04198L6.81545 7.8624L6.33714 7.32367L5.85883 7.08423L5.44031 7.26381L5.5001 8.10184L6.51651 9.11944L6.99482 9.35888L7.47313 9.11944L9.20701 7.38353L9.56575 6.78494L9.38638 6.42578L8.42976 6.5455ZM9.20701 6.8448L9.2668 6.72508V6.78494L9.20701 6.8448Z" fill="black"/>
<path d="M8.36997 16.8407L6.99482 18.2773L6.81545 18.0978L6.33714 17.559L5.85883 17.3196L5.44031 17.4992L5.5001 18.397L6.45672 19.3548L6.93503 19.5942L7.47313 19.2949C8.01123 18.6963 8.60912 18.1576 9.20701 17.559L9.56575 16.9604L9.38638 16.6611L8.36997 16.8407ZM9.20701 17.14V17.0203V17.0801V17.14Z" fill="black"/>
<path d="M12.9735 19.1147L12.5549 19.4739L12.6745 19.8929L12.9735 20.0725V20.1323H15.1856H15.2454H15.9629H16.2618H16.7999H17.2185H17.637L18.2947 19.5337L17.637 18.9351H17.3978H16.7402H14.5878L14.3486 18.8154L14.4084 18.9351H12.9735V19.1147Z" fill="black"/>
<path d="M50.461 9.71771H50.5208L50.9394 9.35856L50.6404 8.81982C42.8081 7.62264 41.0742 0.918416 40.9546 0.678979L40.7752 0.379683L40.4165 0.319824L40.1176 0.858557C40.1176 0.918416 41.971 8.40081 50.461 9.71771Z" fill="black"/>
</g>
<defs>
<clipPath id="clip0">
<rect width="51" height="51" fill="white" transform="translate(-0.000610352 0.319824)"/>
</clipPath>
</defs>
</svg>
