<svg width="79" height="79" viewBox="0 0 79 79" fill="none" xmlns="http://www.w3.org/2000/svg">
<path d="M77.8325 30.0133C72.5938 8.83583 51.1808 -4.0743 30.0119 1.16657C8.83689 6.40343 -4.07292 27.813 1.16581 48.9865C6.40455 70.16 27.8135 83.0741 48.9865 77.8332C70.1575 72.5964 83.0753 51.1848 77.8325 30.0133Z" fill="#F1F2F2"/>
<path d="M2.97365 24.482H33.5659V30.529H1.02937C1.51544 28.4566 2.16953 26.4363 2.97365 24.482ZM10.7827 12.384H33.5659V18.437H6.09409C7.45628 16.2766 9.0245 14.2483 10.7827 12.384ZM68.0208 66.819H10.9708C9.20452 64.9787 7.6083 62.9563 6.2141 60.772H72.7694C71.3912 62.9323 69.801 64.9587 68.0208 66.819ZM30.0114 1.16612C31.1976 0.872076 32.3838 0.640038 33.5679 0.458008V6.33698H18.0398C21.6203 4.0206 25.6388 2.2483 30.0114 1.16612ZM0.107246 36.576H33.5659V42.629H0.12925C-0.0347748 40.5926 -0.0387726 38.5703 0.107246 36.576ZM75.9379 54.727H3.05566C2.29155 52.8927 1.65746 50.9764 1.1654 48.988C1.1394 48.884 1.11739 48.78 1.09138 48.674H77.9161C77.4181 50.7483 76.756 52.7726 75.9379 54.727ZM48.9861 77.8328C46.6498 78.4109 44.3094 78.7669 41.9891 78.917H36.9624C30.2795 78.4889 23.8966 76.3625 18.3738 72.866H60.6417C57.1412 75.0823 53.2307 76.7846 48.9861 77.8328Z" fill="#EF3827"/>
<path d="M36.5602 40.4098L37.4123 39.7877L38.2685 40.4098L37.9424 39.4077L38.7945 38.7856H37.7404L37.4123 37.7834L37.0903 38.7856H36.0341L36.8863 39.4077L36.5602 40.4098ZM40.7568 8.58257L40.4328 9.59074L41.2849 8.96863L42.139 9.59074L41.811 8.58257L42.6651 7.96647H41.6109L41.2829 6.9583L40.9568 7.96647H39.9007L40.7568 8.58257ZM40.7568 17.6761L40.4328 18.6782L41.2849 18.0561L42.139 18.6782L41.811 17.6761L42.6651 17.054H41.6109L41.2829 16.0518L40.9568 17.054H39.9007L40.7568 17.6761ZM40.8348 26.5835L40.5088 27.5857L41.3629 26.9636L42.215 27.5857L41.889 26.5835L42.7451 25.9614H41.6889L41.3629 24.9593L41.0388 25.9614H39.9827L40.8348 26.5835ZM40.5868 36.3912L41.4409 35.7691L42.293 36.3912L41.969 35.389L42.8231 34.7669H41.7669L41.4409 33.7647L41.1169 34.7669H40.0607L40.9148 35.389L40.5868 36.3912ZM44.7854 12.9873L44.4573 13.9895L45.3094 13.3734L46.1676 13.9895L45.8395 12.9873L46.6916 12.3652H45.6375L45.3094 11.363L44.9874 12.3652H43.9333L44.7854 12.9873ZM44.7854 21.7988L44.4573 22.8009L45.3094 22.1788L46.1676 22.8009L45.8395 21.7988L46.6916 21.1767H45.6375L45.3094 20.1745L44.9874 21.1767H43.9333L44.7854 21.7988ZM44.7854 30.8042L44.4573 31.8124L45.3094 31.1903L46.1676 31.8124L45.8395 30.8042L46.6916 30.1881H45.6375L45.3094 29.18L44.9874 30.1881H43.9333L44.7854 30.8042ZM44.4553 40.4098L45.3074 39.7877L46.1656 40.4098L45.8375 39.4077L46.6896 38.7856H45.6355L45.3074 37.7834L44.9854 38.7856H43.9313L44.7834 39.4077L44.4553 40.4098ZM48.6539 8.58257L48.3259 9.59074L49.18 8.96863L50.0361 9.59074L49.7081 8.58257L50.5602 7.96647H49.506L49.18 6.9583L48.8539 7.96647H47.7978L48.6539 8.58257ZM48.6539 17.6761L48.3259 18.6782L49.18 18.0561L50.0361 18.6782L49.7081 17.6761L50.5602 17.054H49.506L49.18 16.0518L48.8539 17.054H47.7978L48.6539 17.6761ZM48.7279 26.5835L48.4019 27.5857L49.258 26.9636L50.1101 27.5857L49.7841 26.5835L50.6382 25.9614H49.584L49.256 24.9593L48.9299 25.9614H47.8718L48.7279 26.5835ZM48.4839 36.3912L49.336 35.7691L50.1901 36.3912L49.8661 35.389L50.7182 34.7669H49.6641L49.336 33.7647L49.01 34.7669H47.9558L48.8079 35.389L48.4839 36.3912ZM52.6785 4.18384L52.3524 5.18601L53.2045 4.5639L54.0607 5.18601L53.7346 4.18384L54.5867 3.56174H53.5306L53.2045 2.55957L52.8785 3.56174H51.8224L52.6785 4.18384ZM52.6785 12.9873L52.3524 13.9895L53.2045 13.3734L54.0607 13.9895L53.7346 12.9873L54.5867 12.3652H53.5306L53.2045 11.363L52.8785 12.3652H51.8224L52.6785 12.9873ZM52.6785 21.7988L52.3524 22.8009L53.2045 22.1788L54.0607 22.8009L53.7346 21.7988L54.5867 21.1767H53.5306L53.2045 20.1745L52.8785 21.1767H51.8224L52.6785 21.7988ZM52.6785 30.8042L52.3524 31.8124L53.2045 31.1903L54.0607 31.8124L53.7346 30.8042L54.5867 30.1881H53.5306L53.2045 29.18L52.8785 30.1881H51.8224L52.6785 30.8042ZM52.3524 40.4098L53.2045 39.7877L54.0607 40.4098L53.7346 39.4077L54.5867 38.7856H53.5306L53.2045 37.7834L52.8785 38.7856H51.8224L52.6765 39.4077L52.3524 40.4098ZM56.549 8.26652L56.221 9.27468L57.0791 8.65258L57.9312 9.27468L57.6032 8.26652L58.4573 7.65042H57.4031L57.0771 6.64825L56.749 7.65042H55.6949L56.549 8.26652ZM56.549 17.358L56.221 18.3602L57.0791 17.7441L57.9312 18.3602L57.6032 17.358L58.4573 16.7359H57.4031L57.0771 15.7338L56.749 16.7359H55.6949L56.549 17.358ZM56.629 26.2675L56.301 27.2697L57.1531 26.6476L58.0112 27.2697L57.6832 26.2675L58.5353 25.6454H57.4811L57.1531 24.6432L56.8311 25.6454H55.7749L56.629 26.2675ZM56.379 36.0791L57.2331 35.457L58.0852 36.0791L57.7592 35.0709L58.6153 34.4548H57.5612L57.2331 33.4527L56.9071 34.4548H55.8509L56.703 35.0709L56.379 36.0791ZM60.5736 12.9873L60.2455 13.9895L61.0977 13.3734L61.9558 13.9895L61.6277 12.9873L62.4798 12.3652H61.4297L61.0997 11.363L60.7776 12.3652H59.7235L60.5736 12.9873ZM60.5736 21.7988L60.2455 22.8009L61.0977 22.1788L61.9558 22.8009L61.6277 21.7988L62.4798 21.1767H61.4297L61.0997 20.1745L60.7776 21.1767H59.7235L60.5736 21.7988ZM60.5736 30.8042L60.2455 31.8124L61.0977 31.1903L61.9558 31.8124L61.6277 30.8042L62.4798 30.1881H61.4297L61.0997 29.18L60.7776 30.1881H59.7235L60.5736 30.8042ZM60.2455 40.4098L61.0977 39.7877L61.9558 40.4098L61.6277 39.4077L62.4798 38.7856H61.4297L61.0997 37.7834L60.7776 38.7856H59.7235L60.5736 39.4077L60.2455 40.4098ZM64.4421 17.272L64.1161 18.2742L64.9682 17.6521L65.8243 18.2742L65.4963 17.272L66.3504 16.6499H65.2942L64.9682 15.6477L64.6442 16.6499H63.586L64.4421 17.272ZM64.5201 26.1815L64.1941 27.1836L65.0462 26.5615L65.9023 27.1836L65.5763 26.1815L66.4284 25.5594H65.3743L65.0462 24.5572L64.7242 25.5594H63.668L64.5201 26.1815ZM64.2761 35.9871L65.1282 35.365L65.9803 35.9871L65.6563 34.9849L66.5124 34.3628H65.4563L65.1302 33.3607L64.8022 34.3628H63.748L64.6041 34.9849L64.2761 35.9871ZM45.6375 3.56174L45.3094 2.55957L44.9874 3.56174H43.9333L44.7854 4.18384L44.4573 5.18601L45.3094 4.5639L46.1676 5.18601L45.8395 4.18384L46.6916 3.56174H45.6375ZM37.7424 30.1881L37.4143 29.18L37.0923 30.1881H36.0361L36.8883 30.8042L36.5622 31.8124L37.4143 31.1903L38.2705 31.8124L37.9444 30.8042L38.7965 30.1881H37.7424ZM37.7424 21.1767L37.4143 20.1745L37.0923 21.1767H36.0361L36.8883 21.7988L36.5622 22.8009L37.4143 22.1788L38.2705 22.8009L37.9444 21.7988L38.7965 21.1767H37.7424ZM37.7424 12.3652L37.4143 11.363L37.0923 12.3652H36.0361L36.8883 12.9873L36.5622 13.9895L37.4143 13.3734L38.2705 13.9895L37.9444 12.9873L38.7965 12.3652H37.7424ZM37.7424 3.56174L37.4143 2.55957L37.0923 3.56174H36.0361L36.8883 4.18384L36.5622 5.18601L37.4143 4.5639L38.2705 5.18601L37.9444 4.18384L38.7965 3.56174H37.7424ZM68.4687 21.7988L68.1426 22.8009L68.9968 22.1788L69.8489 22.8009L69.5228 21.7988L70.377 21.1767H69.3228L68.9948 20.1745L68.6687 21.1767H67.6126L68.4687 21.7988ZM68.4687 30.8042L68.1426 31.8124L68.9968 31.1903L69.8489 31.8124L69.5228 30.8042L70.377 30.1881H69.3228L68.9948 29.18L68.6687 30.1881H67.6126L68.4687 30.8042ZM68.1426 40.4098L68.9968 39.7877L69.8489 40.4098L69.5228 39.4077L70.379 38.7856H69.3248L68.9968 37.7834L68.6707 38.7856H67.6126L68.4687 39.4077L68.1426 40.4098ZM72.4212 26.0255L72.0932 27.0276L72.9473 26.4055L73.7994 27.0276L73.4734 26.0255L74.3275 25.4034H73.2714L72.9473 24.4012L72.6193 25.4034H71.5651L72.4212 26.0255ZM72.1712 35.8311L73.0233 35.209L73.8814 35.8311L73.5534 34.8289L74.4055 34.2068H73.3514L73.0233 33.2046L72.7013 34.2068H71.6431L72.4992 34.8289L72.1712 35.8311ZM76.0397 40.4098L76.8919 39.7877L77.746 40.4098L77.4219 39.4077L78.2741 38.7856H77.2179L76.8919 37.7834L76.5638 38.7856H75.5137L76.3658 39.4077L76.0397 40.4098ZM33.5678 0.457226C33.9559 0.397216 36.8343 0.0811639 37.2223 0.0351562L44.3213 0.2972C51.6783 1.20135 58.5793 4.16984 64.2641 8.7386L64.1181 9.18667L64.4881 8.91663C65.7943 9.9828 67.0345 11.135 68.1986 12.3652H67.6166L68.4707 12.9873L68.1446 13.9895L68.9988 13.3734L69.3388 13.6194C70.1349 14.5376 70.891 15.4937 71.6031 16.4879H71.4851L71.7331 16.6679C71.9052 16.9119 72.0772 17.158 72.2432 17.406L72.0152 18.1121L72.4852 17.7721C74.8876 21.4207 76.7238 25.5294 77.832 30.0101C77.846 30.0681 77.86 30.1281 77.874 30.1861H77.2179L76.8919 29.178L76.5638 30.1861H75.5137L76.3658 30.8022L76.0397 31.8104L76.8919 31.1883L77.746 31.8104L77.4199 30.8022L77.928 30.4342C78.9001 34.5509 79.1882 38.6715 78.8661 42.6762H33.5638V0.457226H33.5678Z" fill="#223C72"/>
</svg>
