<svg width="80" height="79" viewBox="0 0 80 79" fill="none" xmlns="http://www.w3.org/2000/svg">
<path d="M1.16734 30.0128C6.40526 8.83551 27.8181 -4.07366 48.9873 1.16626C70.1626 6.40418 83.0737 27.813 77.8358 48.9862C72.5959 70.1595 51.1871 83.0747 30.0118 77.8327C8.84058 72.5968 -4.07657 51.186 1.16734 30.0128Z" fill="#28903B"/>
<path d="M50 30L52.5921 35.4322L58.5595 36.2188L54.1942 40.3628L55.2901 46.2812L50 43.41L44.7099 46.2812L45.8058 40.3628L41.4405 36.2188L47.4079 35.4322L50 30Z" fill="white"/>
<path fill-rule="evenodd" clip-rule="evenodd" d="M54.2395 20.1963C52.1392 19.4229 49.8689 19 47.5 19C36.7305 19 28 27.7305 28 38.5C28 49.2695 36.7305 58 47.5 58C49.8689 58 52.1392 57.5771 54.2395 56.8037C50.2085 60.0537 45.0813 62 39.5 62C26.5212 62 16 51.4785 16 38.5C16 25.5215 26.5212 15 39.5 15C45.0813 15 50.2085 16.9463 54.2395 20.1963Z" fill="white"/>
</svg>
