<svg width="79" height="79" viewBox="0 0 79 79" fill="none" xmlns="http://www.w3.org/2000/svg">
<path d="M30.0135 77.8331C8.83586 72.5944 -4.07237 51.1832 1.16654 30.0121C6.40544 8.83692 27.8132 -4.07299 48.9868 1.16578C70.1605 6.40456 83.0747 27.8137 77.8338 48.9869C72.5969 70.158 51.1852 83.0759 30.0135 77.8331Z" fill="#EF3827"/>
<path d="M26.2347 76.6968V2.2998C14.1926 6.60644 4.46694 16.6659 1.16637 30.0119C-3.75449 49.8909 7.32943 69.9818 26.2347 76.6968Z" fill="#EF3827"/>
<path d="M47.6185 0.854079C47.5345 0.836077 47.4504 0.818074 47.3664 0.802072C47.2204 0.772067 47.0724 0.744063 46.9263 0.714059C46.8403 0.698056 46.7563 0.682054 46.6703 0.666052C46.5183 0.638047 46.3662 0.612044 46.2142 0.58404C46.1382 0.570037 46.0602 0.556035 45.9842 0.544034C45.7942 0.512029 45.6041 0.482024 45.4141 0.45402C45.3761 0.448019 45.3381 0.442018 45.3021 0.436018C45.074 0.402012 44.846 0.370008 44.6179 0.340003C44.5579 0.332002 44.4979 0.326001 44.4359 0.318C44.2679 0.295997 44.1019 0.275994 43.9338 0.257991C43.8538 0.24799 43.7738 0.239988 43.6958 0.231987C43.5458 0.215985 43.3957 0.199983 43.2457 0.18598C43.1637 0.177979 43.0797 0.169978 42.9977 0.161977C42.8456 0.147975 42.6956 0.135973 42.5436 0.123971C42.4656 0.11797 42.3896 0.111969 42.3115 0.105969C42.1375 0.0939668 41.9635 0.081965 41.7895 0.0719635C41.7374 0.0679629 41.6834 0.0639623 41.6314 0.061962C41.4034 0.0499602 41.1754 0.0379585 40.9473 0.0299573C40.9093 0.027957 40.8733 0.027957 40.8353 0.0259567C40.6473 0.0199558 40.4572 0.0139549 40.2692 0.00995431C40.1972 0.00795401 40.1252 0.00795401 40.0552 0.00595372C39.8991 0.00395342 39.7451 0.00195312 39.5891 0.00195312C39.5111 0.00195312 39.4331 0.00195312 39.355 0.00195312C39.203 0.00195312 39.051 0.00395342 38.899 0.00595372C38.8249 0.00795401 38.7489 0.00795401 38.6729 0.00995431C38.5069 0.0139549 38.3389 0.0179555 38.1728 0.0239564C38.1148 0.0259567 38.0568 0.027957 37.9988 0.0299573C37.5467 0.0459597 37.0966 0.0719635 36.6466 0.103968C36.5866 0.107969 36.5285 0.11397 36.4685 0.11797C36.3045 0.129972 36.1405 0.143974 35.9765 0.157976C35.9044 0.163977 35.8324 0.171978 35.7624 0.177979C35.6084 0.191981 35.4524 0.207984 35.2983 0.223986C35.2283 0.231987 35.1563 0.239988 35.0863 0.24799C34.9223 0.265992 34.7582 0.285995 34.5942 0.305998C34.5362 0.311999 34.4782 0.32 34.4222 0.328001C33.9741 0.38601 33.528 0.45202 33.0839 0.524031C33.0439 0.530031 33.0039 0.538033 32.9639 0.544034C32.7839 0.574038 32.6059 0.606043 32.4258 0.638048C32.3638 0.650049 32.3038 0.660051 32.2418 0.672053C32.0818 0.702057 31.9217 0.732061 31.7617 0.764066C31.6977 0.776068 31.6357 0.79007 31.5717 0.802072C31.4077 0.836077 31.2436 0.870082 31.0816 0.906087C31.0276 0.918089 30.9736 0.930091 30.9176 0.942093C30.7175 0.986099 30.5175 1.03211 30.3175 1.08011L30.2735 1.09011C30.0634 1.14012 29.8554 1.19213 29.6474 1.24614C28.4892 1.54418 27.349 1.89623 26.2288 2.29629V76.6913C27.457 77.1274 28.7152 77.5074 30.0074 77.8275C35.3063 79.1397 40.6213 79.3117 45.6921 78.5036C45.7141 78.4996 45.7381 78.4976 45.7601 78.4936C45.9462 78.4636 46.1302 78.4336 46.3142 78.3996C46.3522 78.3936 46.3923 78.3856 46.4303 78.3776C46.6023 78.3476 46.7763 78.3156 46.9484 78.2816C47.0004 78.2716 47.0504 78.2616 47.1024 78.2516C47.2644 78.2196 47.4264 78.1875 47.5905 78.1535C47.6525 78.1415 47.7125 78.1275 47.7745 78.1135C47.9285 78.0795 48.0825 78.0475 48.2346 78.0115C48.3066 77.9955 48.3766 77.9775 48.4486 77.9615C48.5926 77.9275 48.7367 77.8955 48.8787 77.8595C48.9867 77.8335 49.0947 77.8035 49.2027 77.7775C49.3648 77.7355 49.5268 77.6935 49.6888 77.6515C49.8489 77.6095 50.0069 77.5655 50.1669 77.5214C50.2369 77.5014 50.3069 77.4814 50.3769 77.4614C50.527 77.4174 50.679 77.3754 50.829 77.3294C50.899 77.3074 50.969 77.2854 51.0391 77.2654C51.1891 77.2194 51.3371 77.1734 51.4871 77.1254C51.5572 77.1034 51.6252 77.0814 51.6932 77.0574C51.8432 77.0094 51.9932 76.9594 52.1413 76.9094C52.2093 76.8854 52.2753 76.8634 52.3433 76.8394C52.4933 76.7873 52.6433 76.7353 52.7934 76.6813C52.8294 76.6693 52.8634 76.6573 52.8994 76.6433V76.6413C52.9914 76.6073 53.0854 76.5753 53.1774 76.5413V2.45432C53.0854 2.42031 52.9914 2.39031 52.8994 2.3563V2.3503C52.6673 2.26829 52.4353 2.18828 52.2013 2.11027C52.1793 2.10226 52.1553 2.09426 52.1332 2.08626C51.8292 1.98425 51.5211 1.88423 51.2131 1.78822C51.1691 1.77422 51.1271 1.76021 51.0831 1.74821C50.795 1.6602 50.505 1.57619 50.2129 1.49417C50.1509 1.47617 50.0909 1.45817 50.0289 1.44017C49.6808 1.34415 49.3328 1.25214 48.9807 1.16413C48.7527 1.10812 48.5246 1.05411 48.2986 1.0021C48.2266 0.986099 48.1526 0.970097 48.0805 0.954094C47.9305 0.920089 47.7745 0.886084 47.6185 0.854079Z" fill="#F1F2F2"/>
<path d="M39.8971 54.3494H40.4072L40.2432 47.5624L40.7173 47.1583C42.8436 47.4123 44.754 47.6404 46.8823 47.8984L46.3402 46.0441C46.2542 45.7181 46.3782 45.362 46.6203 45.162L52.8034 39.9132L51.5231 39.2831C50.963 39.0711 51.1191 38.7431 51.3211 37.9469L52.2613 34.3604L48.6726 35.1505C48.3206 35.2065 48.0865 34.9725 48.0365 34.7525L47.5725 33.0642L44.734 36.3867C44.3299 36.9188 43.5117 36.9188 43.7658 35.6866L44.98 28.9536L43.3517 29.8357C42.8956 30.0998 42.4376 30.1438 42.1815 29.6697L39.8991 25.2891L37.6147 29.6697C37.3587 30.1458 36.9006 30.1018 36.4445 29.8357L34.8182 28.9536L36.0324 35.6866C36.2845 36.9188 35.4683 36.9188 35.0643 36.3867L32.2238 33.0642L31.7637 34.7525C31.7077 34.9725 31.4777 35.2065 31.1276 35.1505L27.537 34.3604L28.4791 37.9469C28.6832 38.7431 28.8392 39.0711 28.2771 39.2831L26.9949 39.9132L33.1799 45.162C33.424 45.36 33.548 45.7161 33.462 46.0441L32.9199 47.8984C35.0463 47.6404 36.9566 47.4103 39.083 47.1583L39.5571 47.5624L39.393 54.3494H39.8971Z" fill="#EF3827"/>
</svg>
