<svg width="208" height="211" viewBox="0 0 208 211" fill="none" xmlns="http://www.w3.org/2000/svg">
<path d="M68.364 143.48L82.712 75.116L86.932 73.428L142.636 117.316C130.482 126.094 137.009 147.419 141.792 156.984L94.528 174.708L93.684 171.332C88.9576 153.102 74.8347 145.168 68.364 143.48Z" fill="#4FE399"/>
<path d="M115.345 211C107.652 211 99.9594 211 92.2721 211C90.4342 209.888 89.8124 208.231 89.9335 206.134C90.038 204.378 89.9555 202.611 89.9555 200.773C66.8001 200.773 43.9033 200.773 20.825 200.773C20.825 201.775 20.8525 202.661 20.8195 203.536C20.7094 206.211 19.5209 207.505 16.9016 207.543C12.5764 207.609 8.24581 207.615 3.92068 207.549C1.38943 207.51 0.0797892 206.2 0.046773 203.712C-0.0137568 199.32 -0.0192595 194.922 0.0522757 190.524C0.0907947 188.152 1.42795 186.886 3.80512 186.77C4.80661 186.72 5.81361 186.764 6.87563 186.764C6.87563 132.486 6.87563 78.4669 6.87563 24.2438C5.83012 24.2438 4.88915 24.2713 3.94819 24.2383C1.43896 24.1502 0.0797892 22.8897 0.046773 20.4238C-0.0137568 16.0313 -0.0137568 11.6334 0.0522757 7.23543C0.0852919 4.91811 1.3179 3.53653 3.5685 3.48699C8.16877 3.38791 12.769 3.38791 17.3693 3.48699C19.4438 3.53102 20.6214 4.81904 20.792 6.89417C20.88 7.96751 20.8085 9.05736 20.8085 10.2243C43.9364 10.2243 66.8331 10.2243 89.9555 10.2243C89.9555 8.19318 89.928 6.28319 89.961 4.37869C90.016 1.18618 91.1881 0.0137608 94.3301 0.00825649C100.647 -0.00275216 106.964 -0.00275216 113.281 0.00825649C116.435 0.0137608 117.612 1.19169 117.662 4.37319C117.689 6.32722 117.667 8.28125 117.667 10.1913C140.905 10.1913 163.796 10.1913 186.809 10.1913C186.809 9.06287 186.759 8.09961 186.82 7.14736C186.968 4.83004 188.14 3.52552 190.424 3.48149C194.953 3.39342 199.487 3.38791 204.021 3.48149C206.2 3.52552 207.515 4.84105 207.559 6.99875C207.647 11.5288 207.642 16.0644 207.565 20.5944C207.526 22.8347 206.156 24.1007 203.906 24.2328C202.893 24.2933 201.875 24.2438 200.786 24.2438C200.786 78.5054 200.786 132.58 200.786 186.764C201.677 186.764 202.425 186.759 203.179 186.764C206.327 186.803 207.581 188.014 207.598 191.113C207.62 195.236 207.631 199.353 207.587 203.476C207.559 206.14 206.316 207.494 203.724 207.538C199.333 207.609 194.931 207.615 190.539 207.538C188.14 207.494 186.935 206.189 186.814 203.773C186.765 202.777 186.803 201.775 186.803 200.811C163.587 200.811 140.696 200.811 117.678 200.811C117.678 202.699 117.607 204.417 117.695 206.123C117.805 208.22 117.183 209.888 115.345 211ZM154.084 178.431C185.504 158.153 201.638 118.715 189.901 80.0686C178.202 41.5604 143.673 21.3595 117.662 18.7009C117.662 20.2807 117.689 21.8494 117.656 23.4126C117.59 26.473 116.418 27.64 113.375 27.651C106.992 27.6675 100.603 27.6675 94.2201 27.651C91.1881 27.6455 90.016 26.4675 89.9555 23.4016C89.9225 21.7944 89.95 20.1871 89.95 18.5358C48.4926 24.1612 11.0302 61.3099 14.1172 110.948C17.1547 159.788 57.2749 188.845 89.7189 192.285C90.7699 189.126 87.9525 184.398 93.6093 183.115C91.1056 176.301 88.4753 169.674 86.2302 162.914C83.4348 154.482 77.5139 150.089 69.0232 148.68C64.7476 147.97 63.9497 146.77 64.7971 142.548C69.546 119.023 74.2948 95.4973 78.9886 71.9608C79.2307 70.7333 78.9556 69.4068 78.9446 68.1243C78.9061 64.9207 78.3503 61.6181 78.9501 58.5412C80.4688 50.7416 85.9605 46.5693 93.2791 44.5658C100.642 42.5512 108.109 43.1566 115.576 43.8722C120.38 44.3346 125.189 44.3841 129.845 42.8374C133.355 41.6705 135.87 39.6119 136.03 35.5332C136.046 35.0983 136.585 34.4213 137.004 34.3057C138.831 33.8103 140.707 33.48 142.649 33.0727C142.765 33.6452 142.892 34.0305 142.919 34.4268C143.376 40.8669 139.738 46.4317 133.284 48.9747C127.798 51.1379 122.058 51.4131 116.258 50.8902C109.963 50.3233 103.685 49.6407 97.3731 50.7141C88.2221 52.2718 84.1281 57.6165 85.6689 66.1922C85.8395 67.15 86.5108 68.2288 87.2757 68.8398C106.1 83.8776 124.969 98.8604 143.832 113.849C147.035 116.397 147.14 117.74 144.531 120.982C139.375 127.406 137.774 134.402 140.834 142.334C143.871 150.199 146.644 158.164 149.533 166.079C151.047 170.191 152.56 174.286 154.084 178.431ZM138.005 118.048C122.223 105.51 106.601 93.0919 90.979 80.6796C90.8799 80.7787 90.7864 80.8833 90.6873 80.9824C94.6823 91.8919 98.6773 102.807 102.656 113.662C103.156 113.689 103.426 113.706 103.701 113.717C110.128 113.959 114.872 118.104 115.923 124.389C116.864 130.026 113.529 135.734 108.048 137.87C102.568 140.005 96.2341 137.947 93.037 132.993C89.7134 127.846 90.4562 121.461 95.0565 117.063C96.0195 116.138 95.9369 115.439 95.5517 114.394C91.9255 104.557 88.3432 94.7047 84.7334 84.8574C84.5573 84.384 84.2987 83.9382 83.8475 82.9969C79.8305 103.022 75.9181 122.523 72.0002 142.025C72.4514 142.207 72.6935 142.339 72.9521 142.405C82.9395 145.02 89.7189 151.052 92.8994 161.004C93.8294 163.911 94.996 166.745 96.091 169.701C110.139 164.555 123.951 159.496 137.884 154.394C136.574 150.788 135.336 147.381 134.098 143.974C132.623 139.912 132.024 135.767 132.59 131.44C133.234 126.558 135.149 122.221 138.005 118.048ZM193.511 186.599C193.511 171.716 193.511 156.975 193.511 141.624C188.201 153.777 181.284 164.081 172.177 172.872C163.07 181.662 152.642 188.465 140.509 193.546C156.28 193.546 171.478 193.546 186.655 193.546C187.232 187.326 187.232 187.326 193.511 186.599ZM193.637 24.4475C187.596 23.6658 187.596 23.6658 186.566 17.479C171.489 17.479 156.406 17.479 141.323 17.479C152.934 22.587 163.323 29.3793 172.32 38.2303C181.322 47.0867 188.311 57.3688 193.632 68.8233C193.637 54.0717 193.637 39.3256 193.637 24.4475ZM21.0616 193.535C36.194 193.535 51.3375 193.535 66.8661 193.535C42.3956 183.082 24.9245 166.013 14.0512 141.53C14.0512 157.003 14.0512 171.798 14.0512 186.577C20.0271 187.331 20.0271 187.331 21.0616 193.535ZM14.0567 24.4309C14.0567 39.3311 14.0567 54.0937 14.0567 69.5169C24.9355 44.918 42.4726 27.8877 66.8331 17.479C51.299 17.479 36.117 17.479 20.9516 17.479C20.4123 23.6383 20.4123 23.6383 14.0567 24.4309ZM101.076 183.357C105.297 183.357 109.479 183.335 113.661 183.363C116.324 183.379 117.546 184.574 117.645 187.254C117.706 188.95 117.656 190.645 117.656 192.324C124.028 192.511 143.293 185.878 147.976 181.932C145.439 174.996 142.886 168.022 140.278 160.9C126.235 166.041 112.418 171.099 98.4572 176.213C99.3431 178.635 100.191 180.935 101.076 183.357ZM110.635 20.6054C110.635 16.0148 110.635 11.5894 110.635 7.09783C106.029 7.09783 101.544 7.09783 96.9824 7.09783C96.9824 11.6554 96.9824 16.0754 96.9824 20.6054C101.539 20.6054 105.979 20.6054 110.635 20.6054ZM96.9769 203.921C101.577 203.921 106.062 203.921 110.64 203.921C110.64 199.375 110.64 194.955 110.64 190.425C106.04 190.425 101.561 190.425 96.9769 190.425C96.9769 194.982 96.9769 199.402 96.9769 203.921ZM97.9729 126.14C97.9619 129.272 100.477 131.82 103.558 131.804C106.618 131.787 109.187 129.167 109.149 126.107C109.11 123.074 106.667 120.636 103.63 120.591C100.477 120.542 97.9839 122.991 97.9729 126.14ZM13.7375 17.2093C13.7375 14.8975 13.7375 12.6957 13.7375 10.5215C11.3989 10.5215 9.2418 10.5215 7.10675 10.5215C7.10675 12.8388 7.10675 14.9965 7.10675 17.2093C9.39037 17.2093 11.5419 17.2093 13.7375 17.2093ZM200.494 17.2093C200.494 14.8424 200.494 12.6847 200.494 10.505C198.194 10.505 196.042 10.505 193.825 10.505C193.825 12.7948 193.825 14.947 193.825 17.2093C196.097 17.2093 198.254 17.2093 200.494 17.2093ZM7.04622 200.498C9.42338 200.498 11.5694 200.498 13.7925 200.498C13.7925 198.208 13.7925 196.056 13.7925 193.849C11.4704 193.849 9.26381 193.849 7.04622 193.849C7.04622 196.116 7.04622 198.224 7.04622 200.498ZM200.532 193.854C198.128 193.854 195.971 193.854 193.852 193.854C193.852 196.166 193.852 198.318 193.852 200.514C196.163 200.514 198.315 200.514 200.532 200.514C200.532 198.224 200.532 196.067 200.532 193.854Z" fill="white"/>
</svg>
