<svg width="207" height="211" viewBox="0 0 207 211" fill="none" xmlns="http://www.w3.org/2000/svg">
<g clip-path="url(#clip0)">
<path d="M108.348 211C104.844 211 101.339 211 97.8347 211C95.4587 210.615 93.0828 210.224 90.7014 209.838C88.8816 209.547 88.0014 208.407 87.9529 206.596C87.9043 204.883 87.9313 203.166 87.9258 201.448C87.9151 196.807 87.8935 196.868 83.6167 195.144C80.5172 193.895 77.4824 192.458 74.2155 191.015C72.0933 193.234 69.9658 195.519 67.7734 197.743C66.175 199.362 64.9547 199.45 63.1187 198.145C56.3742 193.344 50.6395 187.508 45.947 180.616C44.7212 178.815 44.8616 177.467 46.4006 175.865C48.1447 174.048 49.9483 172.297 51.6547 170.447C52.1461 169.919 52.3945 169.159 52.7563 168.509C52.0057 168.251 51.2497 167.761 50.4991 167.761C35.0824 167.717 19.6656 167.706 4.2489 167.766C2.39673 167.772 0.971157 167.298 -0.00622559 165.669C-0.000825679 114.843 -0.000825679 64.0113 -0.000825679 13.1854C0.0855728 13.0038 0.204371 12.8276 0.25837 12.6349C2.80713 3.82075 7.79124 0 16.7605 0C74.6259 0 132.491 0 190.357 0.0055054C191.566 0.0055054 192.797 -0.0165162 193.98 0.176173C201.912 1.49747 206.983 7.76262 206.983 16.2464C206.994 65.2775 206.988 114.303 206.988 163.334C206.988 163.885 207.032 164.441 206.945 164.98C206.702 166.511 205.8 167.436 204.299 167.678C203.705 167.772 203.09 167.728 202.485 167.728C186.787 167.733 171.095 167.728 155.398 167.766C154.76 167.766 154.129 168.195 153.492 168.427C153.767 169.038 153.902 169.781 154.334 170.244C156.137 172.187 158.033 174.048 159.89 175.942C161.289 177.367 161.424 178.909 160.29 180.566C155.576 187.442 149.852 193.3 143.113 198.112C141.185 199.488 140.019 199.356 138.307 197.638C136.482 195.811 134.646 193.988 132.885 192.094C132.086 191.23 131.46 191.07 130.304 191.61C126.827 193.234 123.284 194.715 119.71 196.108C118.646 196.521 118.225 196.983 118.252 198.145C118.317 200.892 118.279 203.639 118.257 206.386C118.241 208.379 117.318 209.596 115.303 209.893C112.971 210.224 110.659 210.626 108.348 211ZM156.812 161.396C171.662 161.396 186.247 161.396 200.816 161.396C200.816 121.989 200.816 82.7297 200.816 43.4046C135.872 43.4046 71.035 43.4046 6.21447 43.4046C6.21447 82.8453 6.21447 122.154 6.21447 161.473C20.643 161.473 34.915 161.473 49.3921 161.473C48.7171 159.37 48.0853 157.388 47.4374 155.362C46.5464 155.362 45.812 155.362 45.0776 155.362C35.374 155.368 25.6757 155.379 15.9721 155.368C13.2289 155.362 12.149 154.283 12.1328 151.542C12.1112 147.903 12.1274 144.264 12.1274 140.619C12.1274 140.415 12.122 140.206 12.1328 140.002C12.2678 138.103 13.5043 136.815 15.1783 136.826C16.8523 136.842 18.1267 138.131 18.1699 140.046C18.2347 143.041 18.1861 146.042 18.1861 149.02C23.5806 149.02 28.7159 149.02 33.916 149.02C33.0952 141.935 33.187 135.031 34.3264 128.144C34.8124 125.198 35.617 124.455 38.6085 124.45C41.5623 124.444 44.5106 124.45 47.162 124.45C49.1167 119.671 50.9419 115.195 52.8967 110.411C50.9095 108.44 48.7225 106.304 46.5788 104.129C44.7644 102.29 44.6672 101.013 46.1414 98.888C50.7313 92.265 56.2662 86.6 62.7677 81.9204C65.0248 80.2963 66.1048 80.3623 68.0488 82.3223C70.1926 84.4914 72.3093 86.6935 74.1723 88.6094C78.611 86.8422 82.7527 85.2456 86.8405 83.5169C87.3373 83.3077 87.8341 82.4434 87.8557 81.8598C87.969 79.1842 87.8988 76.5031 87.9313 73.8274C87.969 71.1903 88.617 70.3535 91.0956 69.8966C99.1307 68.4211 107.166 68.4597 115.212 69.8966C117.312 70.2709 118.246 71.4601 118.246 73.5522C118.246 76.2333 118.284 78.9089 118.236 81.59C118.214 82.6911 118.506 83.2582 119.623 83.6876C123.263 85.097 126.865 86.611 130.402 88.2681C131.503 88.7856 132.059 88.5819 132.804 87.7891C134.57 85.9008 136.395 84.073 138.221 82.2397C140.03 80.4229 141.153 80.3018 143.183 81.7552C149.863 86.5394 155.565 92.3201 160.214 99.1688C161.451 100.986 161.332 102.329 159.799 103.931C157.914 105.896 156.029 107.862 154.069 109.745C153.286 110.499 153.313 111.071 153.729 112.029C155.311 115.657 156.823 119.319 158.216 123.024C158.627 124.114 159.091 124.494 160.214 124.461C162.909 124.384 165.604 124.455 168.298 124.444C170.312 124.433 171.473 125.485 171.749 127.456C172.105 130.032 172.521 132.625 172.602 135.218C172.742 139.793 172.64 144.374 172.64 149.042C177.824 149.042 183.24 149.042 188.629 149.042C188.629 117.849 188.629 86.7816 188.629 55.7367C131.762 55.7367 75.0579 55.7367 18.1861 55.7367C18.1861 56.6561 18.1861 57.4654 18.1861 58.2747C18.1915 79.0135 18.1915 99.7579 18.1969 120.497C18.1969 122.831 18.2455 125.171 18.1591 127.5C18.0943 129.388 16.7389 130.66 15.0649 130.605C13.4719 130.555 12.2732 129.311 12.1274 127.527C12.095 127.12 12.1166 126.701 12.1166 126.294C12.1166 102.048 12.1166 77.8078 12.1166 53.562C12.1166 50.413 13.1047 49.4275 16.2583 49.4275C74.4693 49.4275 132.686 49.433 190.897 49.4385C193.867 49.4385 194.86 50.4735 194.86 53.5345C194.86 85.9503 194.86 118.366 194.855 150.787C194.855 154.504 194.012 155.346 190.313 155.346C180.34 155.351 170.372 155.335 160.398 155.39C159.745 155.395 158.724 155.737 158.508 156.221C157.806 157.84 157.385 159.574 156.812 161.396ZM141.45 87.5359C138.912 90.184 136.817 92.3146 134.781 94.5002C133.366 96.0197 131.859 96.3005 130.094 95.1719C125.439 92.1879 120.401 90.1124 115.06 88.8131C113.019 88.3176 112.15 87.0569 112.177 84.9759C112.209 82.4379 112.128 79.8944 112.204 77.3564C112.242 76.0681 111.842 75.4295 110.524 75.435C105.551 75.457 100.578 75.457 95.6045 75.457C94.4111 75.457 93.963 76.0131 93.9954 77.2408C94.0602 79.7127 94.0169 82.1846 93.9899 84.6566C93.9575 87.4808 93.2718 88.0148 90.6582 88.9948C85.9495 90.773 81.2786 92.6944 76.7264 94.8525C73.8267 96.2234 73.2489 96.3775 70.9269 93.9992C68.9506 91.9787 66.9958 89.9362 64.6901 87.5469C60.2405 92.1164 56.0502 96.4106 51.7897 100.782C54.2682 103.287 56.331 105.357 58.3722 107.449C60.2675 109.398 60.3917 110.367 59.0094 112.707C56.2824 117.326 54.2844 122.242 52.9939 127.467C52.3783 129.96 51.5467 130.621 49.0411 130.632C46.0928 130.649 43.1444 130.638 39.8235 130.638C39.8235 136.903 39.8235 142.953 39.8235 149.185C43.031 149.185 45.8444 149.18 48.6631 149.185C51.6439 149.191 52.0705 149.78 53.0965 152.56C54.9108 157.482 56.925 162.332 59.058 167.116C60.1595 169.583 60.2675 170.453 58.3506 172.396C56.2662 174.505 54.1332 176.558 51.6709 178.981C56.1744 183.55 60.3809 187.817 64.7711 192.271C67.3036 189.628 69.4312 187.431 71.5209 185.213C72.8925 183.754 74.3667 183.572 76.0515 184.629C80.7224 187.569 85.7227 189.733 91.0794 190.982C93.1044 191.456 94.0331 192.684 94.0061 194.781C93.9683 197.391 94.0493 200 93.9846 202.61C93.9521 203.848 94.4165 204.382 95.5991 204.382C100.572 204.377 105.546 204.383 110.519 204.388C111.637 204.388 112.247 203.992 112.209 202.687C112.139 200.149 112.171 197.605 112.198 195.067C112.225 192.419 112.809 191.582 115.249 190.971C120.455 189.678 125.331 187.602 129.916 184.778C132.102 183.434 133.064 183.578 134.9 185.449C136.984 187.58 139.031 189.749 141.45 192.282C145.872 187.773 150.073 183.484 154.415 179.052C151.931 176.547 149.82 174.444 147.741 172.314C145.953 170.48 145.818 169.451 147.136 167.221C149.868 162.608 151.861 157.686 153.168 152.467C153.837 149.78 154.572 149.196 157.234 149.191C160.182 149.18 163.125 149.191 166.338 149.191C166.338 142.893 166.338 136.842 166.338 130.643C162.968 130.643 160.015 130.654 157.061 130.638C154.647 130.627 153.783 129.966 153.211 127.604C151.936 122.302 149.917 117.32 147.157 112.641C145.829 110.389 145.942 109.365 147.735 107.548C149.825 105.423 151.958 103.336 154.474 100.837C150.09 96.361 145.888 92.0668 141.45 87.5359ZM6.16047 36.9467C71.1483 36.9467 135.98 36.9467 200.903 36.9467C200.903 29.4649 201.027 22.1207 200.86 14.782C200.746 10.0198 196.68 6.2156 191.901 6.20459C173.574 6.16054 155.252 6.13852 136.925 6.2156C129.775 6.24863 123.689 11.5448 122.442 18.7459C122.026 21.1518 122.129 23.6622 122.102 26.1286C122.053 30.1311 121.324 30.9073 117.355 30.9073C81.1112 30.9073 44.867 30.9073 8.61743 30.9073C7.82904 30.9073 7.04065 30.9073 6.15507 30.9073C6.16047 33.0049 6.16047 34.8987 6.16047 36.9467ZM122.383 6.18256C121.103 6.18256 120.374 6.18256 119.645 6.18256C109.207 6.18256 98.7743 6.18807 88.3362 6.18807C64.0961 6.18807 39.8559 6.18257 15.6211 6.19358C10.961 6.19358 7.11625 8.80864 6.47366 13.2405C5.93367 16.9566 6.36566 20.8214 6.36566 24.5816C42.8852 24.5816 79.4048 24.5816 116.07 24.5816C115.568 17.6283 117.388 11.5779 122.383 6.18256Z" fill="white"/>
<path d="M57.6278 139.914C57.6062 114.347 78.0449 93.5258 103.138 93.5479C128.156 93.5699 148.438 114.221 148.557 139.793C148.67 165.316 128.232 186.231 103.149 186.264C78.0557 186.303 57.6494 165.52 57.6278 139.914ZM142.471 139.986C142.536 117.876 124.938 99.802 103.268 99.7304C81.4684 99.6589 63.7621 117.601 63.6919 139.826C63.6271 161.914 81.247 179.999 102.911 180.076C124.732 180.153 142.401 162.244 142.471 139.986Z" fill="white"/>
<path d="M128.161 21.5703C128.194 16.4668 132.352 12.3102 137.374 12.3708C142.374 12.4313 146.424 16.687 146.354 21.8125C146.289 26.8114 142.158 30.9405 137.244 30.913C132.228 30.8909 128.129 26.6738 128.161 21.5703ZM140.268 21.7024C140.306 20.0783 139.021 18.6579 137.417 18.5643C135.748 18.4653 134.269 19.8526 134.231 21.5648C134.193 23.1944 135.478 24.6093 137.077 24.7084C138.751 24.8075 140.23 23.4146 140.268 21.7024Z" fill="white"/>
<path d="M170.605 21.664C170.588 26.7675 166.441 30.9461 161.43 30.9021C156.435 30.8635 152.358 26.6078 152.412 21.4933C152.466 16.4834 156.565 12.3599 161.484 12.3599C166.495 12.3544 170.615 16.5605 170.605 21.664ZM164.524 21.5374C164.47 19.9078 163.11 18.5589 161.517 18.5534C159.843 18.5479 158.439 20.0179 158.493 21.7246C158.547 23.3542 159.907 24.7085 161.5 24.7085C163.174 24.7195 164.578 23.244 164.524 21.5374Z" fill="white"/>
<path d="M176.674 21.6583C176.663 16.5493 180.784 12.3541 185.8 12.3707C190.833 12.3872 194.899 16.5823 194.861 21.7188C194.823 26.7398 190.763 30.8743 185.838 30.9073C180.805 30.9349 176.685 26.7783 176.674 21.6583ZM185.789 24.7028C187.377 24.6917 188.732 23.3319 188.77 21.7078C188.813 20.0122 187.404 18.5532 185.735 18.5642C184.137 18.5697 182.792 19.9186 182.76 21.5482C182.722 23.2548 184.126 24.7193 185.789 24.7028Z" fill="white"/>
<path d="M118.226 139.898C118.231 148.42 111.449 155.351 103.1 155.357C94.7414 155.362 87.9645 148.448 87.9591 139.914C87.9537 131.392 94.736 124.46 103.084 124.46C111.449 124.46 118.22 131.359 118.226 139.898ZM103.041 149.174C108.068 149.202 112.161 145.045 112.161 139.909C112.161 134.866 108.166 130.715 103.241 130.638C98.1973 130.566 94.088 134.645 94.0232 139.793C93.9638 144.924 98.0245 149.147 103.041 149.174Z" fill="white"/>
</g>
<defs>
<clipPath id="clip0">
<rect width="207" height="211" fill="white"/>
</clipPath>
</defs>
</svg>
