<svg width="201" height="200" viewBox="0 0 201 200" fill="none" xmlns="http://www.w3.org/2000/svg">
<path d="M188.341 46.1336C181.598 52.8302 174.911 59.5457 168.117 66.1546C166.835 67.4024 166.555 68.4213 167.517 69.8885C167.932 70.5218 168.174 71.268 168.466 71.9734C170.227 76.2153 170.224 76.2184 174.908 76.2153C182.805 76.2121 190.702 76.2059 198.599 76.2027C199.353 76.2027 200.111 76.2027 201.007 76.2027C201.007 92.0665 201.007 107.745 201.007 123.641C200.234 123.675 199.492 123.738 198.75 123.738C189.806 123.744 180.859 123.778 171.915 123.706C170.478 123.694 169.771 124.117 169.35 125.468C168.875 126.986 168.319 128.519 167.526 129.892C166.608 131.488 166.847 132.51 168.18 133.805C174.433 139.874 180.57 146.063 186.744 152.211C187.278 152.744 187.788 153.302 188.155 153.688C176.917 164.871 165.769 175.966 154.464 187.215C154.169 186.936 153.612 186.441 153.084 185.917C146.756 179.625 140.409 173.354 134.137 167.009C133.128 165.987 132.329 165.811 131.069 166.451C129.456 167.266 127.774 167.981 126.054 168.529C124.662 168.975 124.328 169.746 124.338 171.125C124.401 179.957 124.369 188.789 124.369 197.62C124.369 198.37 124.369 199.119 124.369 200.003C108.393 200.003 92.6429 200.003 76.698 200.003C76.6634 199.229 76.6005 198.492 76.6005 197.752C76.5974 188.92 76.5596 180.089 76.6508 171.257C76.6665 169.646 76.1635 168.834 74.6357 168.464C73.7617 168.25 72.9223 167.871 72.0861 167.52C68.0339 165.821 68.0339 165.811 64.997 168.84C58.7819 175.038 52.5668 181.239 46.4805 187.312C35.1757 176.057 23.9903 164.918 12.5535 153.528C14.1411 152.026 15.9393 150.39 17.6683 148.681C22.8743 143.536 28.0332 138.341 33.2612 133.218C34.088 132.41 34.2797 131.786 33.7516 130.72C32.8871 128.983 32.0886 127.189 31.507 125.343C31.0857 124.004 30.3689 123.709 29.08 123.719C20.2053 123.769 11.3306 123.753 2.45585 123.76C1.69822 123.76 0.937437 123.76 0.0131836 123.76C0.0131836 107.921 0.0131836 92.2421 0.0131836 76.2184C0.670221 76.2184 1.40271 76.2184 2.13205 76.2184C11.0759 76.2184 20.023 76.1839 28.9668 76.2529C30.3847 76.2654 31.0763 75.8735 31.5164 74.5129C32.0886 72.7353 32.8336 70.9921 33.6981 69.3336C34.3332 68.1172 34.0597 67.4149 33.126 66.4995C26.7097 60.1978 20.3562 53.8366 13.9839 47.4911C13.4966 47.0083 13.0313 46.5035 12.6918 46.1493C23.9589 34.938 35.1631 23.7863 46.5088 12.4967C53.6325 19.6103 60.8756 26.8462 68.1093 34.0696C70.6274 33.0601 73.1204 32.1634 75.5002 31.0222C76.0723 30.7495 76.5628 29.671 76.5691 28.9624C76.6414 20.1307 76.6162 11.299 76.6162 2.46736C76.6162 1.70552 76.6162 0.943677 76.6162 0C92.514 0 108.321 0 124.391 0C124.391 0.77438 124.391 1.51741 124.391 2.26044C124.385 11.0921 124.423 19.9238 124.338 28.7555C124.322 30.2729 124.813 30.9689 126.23 31.4141C127.953 31.9565 129.657 32.6337 131.254 33.4708C132.499 34.1229 133.194 33.7968 134.099 32.8845C140.387 26.5515 146.74 20.2844 153.037 13.9639C153.568 13.4309 153.857 12.6597 154.172 12.1393C165.829 23.7456 176.986 34.8408 188.341 46.1336ZM46.5277 179.167C46.9332 178.687 47.3482 178.12 47.8386 177.628C53.8085 171.668 59.8005 165.733 65.7484 159.751C66.5846 158.911 67.1882 158.651 68.4142 159.202C72.4759 161.027 76.6005 162.72 80.7691 164.281C82.1272 164.789 82.5358 165.401 82.5233 166.808C82.4572 175.154 82.4981 183.497 82.5013 191.842C82.5013 192.579 82.5013 193.316 82.5013 194.071C94.6077 194.071 106.434 194.071 118.443 194.071C118.443 193.131 118.443 192.375 118.443 191.62C118.447 183.343 118.428 175.069 118.5 166.793C118.506 166.075 118.943 164.937 119.484 164.708C124.281 162.679 129.148 160.811 134.63 158.641C141.198 165.191 148.076 172.053 154.819 178.781C163.106 170.536 171.45 162.234 179.881 153.844C173.053 147.107 166.124 140.272 159.519 133.758C161.522 128.745 163.402 124.268 165.071 119.712C165.59 118.295 166.209 117.815 167.715 117.828C176.099 117.897 184.487 117.856 192.871 117.844C193.61 117.844 194.345 117.762 195.09 117.718C195.09 105.742 195.09 94.0166 195.09 82.0874C194.207 82.0874 193.453 82.0874 192.701 82.0874C184.314 82.0842 175.929 82.0748 167.542 82.078C166.552 82.078 165.788 82.1125 165.304 80.849C163.638 76.5131 161.839 72.2211 159.937 67.9824C159.425 66.8381 159.68 66.2612 160.465 65.4931C163.807 62.2325 167.105 58.9218 170.415 55.6268C173.619 52.4384 176.822 49.2468 179.812 46.2684C171.299 37.7973 162.88 29.417 154.326 20.902C147.645 27.5704 140.795 34.405 134.124 41.0641C129.478 39.2049 125.07 37.2831 120.543 35.7124C118.78 35.101 118.409 34.2639 118.421 32.5961C118.491 24.4604 118.443 16.3247 118.437 8.18899C118.437 7.43969 118.437 6.69352 118.437 5.81882C106.372 5.81882 94.5386 5.81882 82.5013 5.81882C82.5013 6.47406 82.5013 7.01331 82.5013 7.55255C82.4981 16.1052 82.4761 24.661 82.5075 33.2137C82.5107 34.3894 82.2529 34.9882 81.0017 35.4616C76.7042 37.0887 72.4728 38.882 68.2665 40.7317C67.2605 41.1738 66.6883 41.133 65.937 40.3461C63.9156 38.2299 61.7967 36.2046 59.7313 34.1323C55.2609 29.649 50.8 25.1595 46.5968 20.9365C38.0082 29.486 29.5862 37.8662 20.9881 46.4252C21.3716 46.7449 22.0004 47.1964 22.5442 47.7356C28.4859 53.6234 34.4023 59.5394 40.3597 65.4116C41.1928 66.233 41.4757 66.8412 40.9193 68.0639C39.0771 72.102 37.3669 76.2027 35.7856 80.3474C35.2763 81.6861 34.6978 82.125 33.2643 82.1125C24.88 82.0435 16.4926 82.0842 8.10826 82.0874C7.36949 82.0874 6.63071 82.0874 5.91709 82.0874C5.91709 94.1483 5.91709 105.921 5.91709 117.847C6.85392 117.847 7.6147 117.847 8.37233 117.847C16.6183 117.853 24.8643 117.888 33.1103 117.837C34.5532 117.828 35.292 118.17 35.8422 119.646C37.3983 123.8 39.1462 127.889 40.9664 131.933C41.482 133.077 41.1865 133.645 40.4131 134.407C35.4932 139.247 30.6173 144.132 25.7162 148.991C24.0909 150.603 22.4342 152.183 20.9095 153.663C29.4698 162.184 37.851 170.53 46.5277 179.167Z" fill="white"/>
<path d="M92.7491 110.909C94.1763 112.357 95.4433 113.646 96.7102 114.931C85.245 129.456 69.2184 137.526 50.6201 127.042C39.1015 120.55 33.1945 106.871 35.7252 94.0137C38.3376 80.7426 48.8093 70.6381 62.1607 68.6723C73.0788 67.064 82.4188 70.3434 90.2027 78.0715C100.888 88.6808 111.549 99.3121 122.225 109.928C126.849 114.527 132.247 116.317 138.657 114.314C145.054 112.317 149.742 105.473 149.072 99.102C148.261 91.3739 142.961 85.7839 135.787 84.9406C130.537 84.323 126.186 86.0348 122.52 89.6841C120.301 91.8943 118.131 94.1548 115.789 96.55C114.425 94.9824 113.205 93.5842 111.844 92.0166C116.648 87.4487 120.879 81.6769 128.226 79.6328C140.458 76.228 153.253 84.7368 154.778 97.2805C156.416 110.762 145.372 122.214 131.637 120.835C126.45 120.314 122.061 118.092 118.367 114.398C107.723 103.751 97.0057 93.1735 86.3673 82.5171C80.5326 76.6701 73.6196 73.7732 65.2793 74.1526C51.0508 74.7984 39.3562 88.5272 41.233 102.573C42.6602 113.257 48.4006 120.753 58.624 124.296C68.8851 127.851 78.0082 125.321 85.7858 117.878C88.1027 115.665 90.319 113.348 92.7491 110.909Z" fill="white"/>
<path d="M85.1854 103.441C86.6378 104.874 87.9236 106.14 89.3666 107.56C84.148 112.574 79.8537 118.637 72.2113 120.333C64.4526 122.054 57.549 120.289 51.9972 114.668C46.5051 109.106 44.666 102.221 46.6937 94.6625C49.2684 85.0564 57.0303 79.0119 66.8795 78.9084C72.9092 78.8426 78.1529 81.0967 82.4724 85.417C93.1673 96.1172 103.919 106.758 114.629 117.446C118.572 121.38 123.143 124.114 128.657 125.29C142.495 128.243 156.573 118.979 159.292 105.065C162.084 90.7812 152.643 76.8894 138.528 74.5474C129.562 73.0614 121.813 75.5413 115.302 81.8241C112.948 84.0971 110.678 86.461 108.194 88.9565C106.89 87.3952 105.664 85.9343 104.39 84.4137C109.955 78.8049 115.472 72.5535 123.863 69.7851C144.617 62.9349 166.444 78.9241 165.624 100.685C165.111 114.216 158.459 124.042 145.957 129.177C133.536 134.281 121.759 132.109 111.976 122.894C100.766 112.329 90.0425 101.253 79.1275 90.3799C76.1346 87.3984 72.7897 85.2602 68.42 84.8401C62.7864 84.2977 56.7882 87.2698 53.962 92.2422C50.8717 97.6816 51.2081 104.278 54.8139 108.924C60.7964 116.637 71.067 117.261 78.2787 110.319C80.583 108.1 82.8182 105.805 85.1854 103.441Z" fill="white"/>
<path d="M135.601 134.949C137.022 136.385 138.292 137.664 139.556 138.943C121.451 158.56 84.8992 162.62 61.4031 139.254C62.7172 137.971 64.0375 136.683 65.5434 135.209C75.0531 144.32 86.7006 149.336 100.303 149.374C113.947 149.408 125.623 144.449 135.601 134.949Z" fill="white"/>
<path d="M80.5106 54.5264C79.7121 52.7268 78.9828 51.0872 78.2566 49.4538C95.3018 41.0296 121.917 42.8543 139.625 60.7685C138.207 62.0382 136.786 63.3111 135.362 64.5871C121.275 50.689 99.6213 46.5161 80.5106 54.5264Z" fill="white"/>
<path d="M27.2119 153.61C31.7011 149.155 36.181 144.706 40.7676 140.157C41.8585 141.285 43.1443 142.608 44.3138 143.815C39.8151 148.277 35.3321 152.722 30.7738 157.243C29.6577 156.108 28.3719 154.795 27.2119 153.61Z" fill="white"/>
<path d="M150.122 30.8717C151.442 29.5487 153.149 27.8432 154.995 25.9966C156.262 27.3792 157.504 28.7336 158.767 30.1162C157.12 31.6022 155.341 33.2074 153.549 34.8251C152.675 33.8156 151.446 32.3985 150.122 30.8717Z" fill="white"/>
<path d="M65.729 56.6455C67.0431 58.2883 68.1528 59.6741 69.4071 61.2448C67.9987 62.4988 66.6878 63.6651 65.2951 64.9097C63.9339 63.4613 62.7141 62.1634 61.3152 60.6773C62.6481 59.4609 64.088 58.1441 65.729 56.6455Z" fill="white"/>
<path d="M146.677 42.111C145.369 40.8256 144.105 39.581 142.879 38.3771C144.19 37.0447 145.472 35.7404 146.661 34.5303C147.921 35.7373 149.245 37.0039 150.65 38.3457C149.402 39.5277 148.069 40.7912 146.677 42.111Z" fill="white"/>
<path d="M74.3992 50.9961C75.3644 52.8019 76.2069 54.3852 77.1689 56.1879C75.619 57.1222 74.1037 58.0376 72.4344 59.044C71.2775 57.3855 70.2244 55.8744 69.0801 54.2347C70.8563 53.1531 72.5067 52.1467 74.3992 50.9961Z" fill="white"/>
<path d="M139.503 48.9333C138.368 47.8172 137.085 46.5538 135.727 45.2213C137.129 43.9234 138.484 42.6662 139.943 41.3149C141.053 42.5251 142.304 43.8858 143.643 45.3436C142.408 46.4158 141.009 47.6291 139.503 48.9333Z" fill="white"/>
</svg>
