<svg width="109" height="70" viewBox="0 0 109 70" fill="none" xmlns="http://www.w3.org/2000/svg">
<path d="M31.1501 44.1098H9.00012C5.35012 44.1098 2.39014 41.1498 2.39014 37.4998V9.13983C2.39014 6.05983 4.8901 3.5498 7.9801 3.5498H31.1602C34.8102 3.5498 37.7701 6.50982 37.7701 10.1598V37.4898C37.7601 41.1498 34.8001 44.1098 31.1501 44.1098Z" fill="#4FE399"/>
<path d="M108.84 62.1998C108.67 61.2198 107.23 59.9498 106.19 59.7298C104.25 59.3298 102.16 59.6198 99.8399 59.6198C99.8399 57.2698 99.8899 55.0298 99.8999 52.8398H99.92V24.9098H99.9099C99.8899 23.6098 99.8499 22.3098 99.8199 21.0198C99.6999 16.4398 96.4199 12.8298 91.8999 12.7898C78.2299 12.6598 64.5599 12.7198 50.8899 12.8098V12.8298C50.1499 12.8898 49.56 13.5098 49.56 14.2698V14.2898C49.56 15.0898 50.2099 15.7398 51.0099 15.7398H56.7199C56.8199 15.7398 56.9199 15.7298 57.0199 15.7098C58.5899 15.7098 60.1499 15.6898 61.7199 15.6898C71.3799 15.6898 81.0399 15.6398 90.6999 15.6998C94.8099 15.7298 96.8399 17.9298 96.4999 21.9598C95.4099 21.9598 94.29 21.9598 93.18 21.9598C80.3 21.9598 67.4099 21.9498 54.5299 21.9998C54.3799 21.9498 54.22 21.9098 54.05 21.9098H48.3399C47.5399 21.9098 46.8899 22.5598 46.8899 23.3598V23.4798C46.8899 24.2798 47.5399 24.9298 48.3399 24.9298H54.05C54.16 24.9298 54.2599 24.9198 54.3599 24.8998C62.8299 24.9698 71.3099 24.9298 79.7799 24.9298C85.2399 24.9298 90.7099 24.9298 96.7699 24.9298V52.8598C96.7699 55.0898 96.7699 57.3398 96.7699 59.6198H72.2099C71.6599 59.5898 71.0899 59.6098 70.5199 59.6198H59.2599V59.6298C48.1199 59.6398 36.9899 59.6398 25.8499 59.6298C25.1799 59.6298 24.4899 59.4999 23.7099 59.3899C23.7099 59.3699 23.7099 59.3598 23.7099 59.3398V49.5898C23.7099 48.7898 23.0599 48.1399 22.2599 48.1399H22.1399C21.3399 48.1399 20.6899 48.7898 20.6899 49.5898V59.3398C20.6899 59.4298 20.6999 59.5198 20.7199 59.5998L20.3999 59.6298C18.0699 59.6298 16.2199 59.6898 14.3799 59.6098C12.0699 59.5198 11.3199 60.7298 11.3199 62.8398C11.3099 67.1998 13.6099 69.5098 18.2799 69.5198C33.4899 69.5498 48.6999 69.5298 63.8999 69.5398C67.0499 69.5398 70.1899 69.5398 74.2399 69.5398H76.7199C76.8399 69.5498 76.9399 69.5598 77.0699 69.5598C85.5999 69.4998 94.1299 69.5898 102.66 69.5098C106.9 69.4498 109.58 66.3598 108.84 62.1998ZM102.04 66.5798C96.1799 66.5298 90.3199 66.5698 84.4699 66.5698C81.3199 66.5698 78.1599 66.5698 75.0199 66.5698V66.5798H57.2699V66.5998C44.3499 66.5598 31.4299 66.5498 18.5199 66.5798C16.0099 66.5798 14.2799 65.9499 14.5399 62.6399C32.4299 62.6399 50.25 62.6399 68.17 62.6399C68.16 62.6199 68.1599 62.5998 68.1499 62.5898H79.6399C87.2499 62.6398 94.8699 62.5898 102.48 62.5798C103.57 62.5798 104.66 62.5798 105.83 62.5798C105.94 65.6698 104.53 66.5898 102.04 66.5798Z" fill="black"/>
<path d="M22.53 44.0999V44.0899C27.67 44.0899 32.81 44.1299 37.95 44.0799C42.07 44.0399 44.59 41.7299 44.7 37.6799C44.79 34.3399 44.8 31.0099 44.76 27.6699C44.78 27.5799 44.7901 27.4799 44.7901 27.3799V21.6699C44.7901 20.8699 44.14 20.2199 43.34 20.2199H43.22C42.42 20.2199 41.77 20.8699 41.77 21.6699V24.5799C41.7 28.4399 41.77 32.2999 41.74 36.1599C41.72 40.1099 40.73 41.1199 36.88 41.1299C27.32 41.1499 17.75 41.1499 8.18996 41.1399C4.64996 41.1399 3.59997 40.1199 3.57997 36.5799C3.54997 27.1199 3.54007 17.6599 3.55007 8.19989C3.56007 4.01989 4.44002 3.14989 8.63002 3.13989C15.63 3.12989 22.62 3.16987 29.62 3.11987C29.66 3.11987 29.7 3.12988 29.74 3.12988H35.45C36.25 3.12988 36.9 2.47987 36.9 1.67987V1.55988C36.9 0.759875 36.25 0.109863 35.45 0.109863H29.74C29.62 0.109863 29.51 0.129882 29.4 0.159882C22.07 0.109882 14.73 0.0998914 7.40004 0.169891C2.99004 0.209891 0.630013 2.68987 0.620013 7.17987C0.590013 17.1499 0.590023 27.1299 0.630023 37.0999C0.650023 41.7199 3.02999 44.0499 7.71999 44.0899C12.66 44.1399 17.6 44.0999 22.53 44.0999Z" fill="black"/>
</svg>
