<svg width="132" height="218" viewBox="0 0 132 218" fill="none" xmlns="http://www.w3.org/2000/svg">
<path d="M132 109.195C132 138.386 132 167.584 132 196.776C132 209.942 123.976 218 110.87 218C80.9501 218 51.024 218 21.1044 218C8.00491 218 0 209.935 0 196.743C0 138.191 0 79.6461 0 21.0943C0 8.08418 8.05028 0.00649854 21.0137 0C51.011 0 81.0149 0 111.019 0C123.937 0 131.994 8.11018 131.994 21.1268C132 50.4872 132 79.8411 132 109.195ZM124.066 186.742C124.066 137.386 124.066 88.2307 124.066 39.1277C85.2215 39.1277 46.5452 39.1277 7.88824 39.1277C7.88824 88.4256 7.88824 137.529 7.88824 186.742C46.6294 186.742 85.2474 186.742 124.066 186.742ZM7.79101 30.9655C46.7396 30.9655 85.4289 30.9655 124.235 30.9655C124.235 27.3069 124.248 23.8301 124.235 20.3534C124.203 12.6137 119.38 7.79825 111.615 7.79175C99.4035 7.77875 87.1919 7.79175 74.9739 7.79175C56.6112 7.79175 38.255 7.77225 19.8924 7.79825C13.3134 7.80475 8.1151 12.4187 7.82342 18.6443C7.63545 22.6864 7.79101 26.7415 7.79101 30.9655ZM124.144 194.82C85.2604 194.82 46.5711 194.82 7.76509 194.82C7.76509 195.801 7.76509 196.6 7.76509 197.406C7.77157 205.438 12.5551 210.202 20.6313 210.215C24.9157 210.221 29.2066 210.215 33.491 210.215C59.6123 210.215 85.74 210.202 111.861 210.228C116.424 210.234 120.002 208.486 122.498 204.613C124.403 201.643 124.384 198.335 124.144 194.82Z" fill="white"/>
<path d="M108.705 112.971C108.705 120.346 108.646 127.729 108.737 135.105C108.77 137.613 107.804 139.16 105.561 140.271C93.3366 146.334 81.138 152.462 68.9719 158.636C66.9042 159.682 65.1023 159.689 63.0216 158.629C50.7777 152.41 38.4949 146.263 26.1991 140.141C24.1379 139.114 23.2628 137.639 23.2693 135.332C23.3212 120.418 23.3147 105.497 23.2693 90.5832C23.2628 88.1917 24.1897 86.6645 26.3352 85.5988C38.631 79.4902 50.9138 73.336 63.1578 67.1104C65.1606 66.0902 66.8783 66.1032 68.8681 67.1104C80.8982 73.2061 92.9412 79.2692 105.043 85.2284C107.72 86.5476 108.821 88.3217 108.757 91.3305C108.595 98.5374 108.705 105.751 108.705 112.971ZM62.004 149.297C62.0494 148.31 62.1142 147.614 62.1142 146.919C62.1142 135.819 62.0624 124.713 62.1531 113.614C62.1661 111.866 61.5373 111.067 60.053 110.339C50.9268 105.848 41.8459 101.254 32.7456 96.7048C32.2724 96.4643 31.7409 96.3344 31.0603 96.0874C31.0603 108.37 31.0279 120.437 31.1381 132.505C31.1446 133.253 32.0715 134.292 32.8363 134.682C41.0292 138.874 49.2739 142.961 57.5057 147.075C58.9252 147.783 60.3577 148.485 62.004 149.297ZM100.94 95.847C90.6078 101.026 80.7167 105.952 70.8904 111.002C70.3006 111.3 69.9311 112.568 69.9247 113.387C69.8663 124.408 69.8923 135.43 69.8987 146.451C69.8987 147.302 69.8987 148.16 69.8987 149.297C70.9423 148.823 71.6682 148.518 72.3748 148.167C79.0185 144.846 85.6687 141.525 92.2995 138.178C95.1061 136.762 98.9886 135.962 100.376 133.662C101.821 131.271 100.92 127.41 100.927 124.194C100.959 114.888 100.94 105.582 100.94 95.847ZM35.9151 89.5499C46.0007 94.6058 55.5677 99.4277 65.1801 104.146C65.7893 104.445 66.8783 104.165 67.5783 103.814C75.9721 99.6746 84.34 95.4701 92.7144 91.272C93.6931 90.7781 94.6524 90.2452 95.9358 89.5629C94.8857 88.978 94.1598 88.5296 93.3949 88.1462C85.6039 84.2276 77.7222 80.4974 70.0673 76.3319C67.0792 74.7072 64.8171 74.8307 61.9003 76.3839C53.5065 80.8613 44.9442 85.0074 35.9151 89.5499Z" fill="white"/>
<path d="M66.0422 23.3558C62.3282 23.3558 58.6141 23.3818 54.9001 23.3493C52.1454 23.3233 50.5703 21.9261 50.5055 19.5671C50.4407 17.1237 52.0806 15.5965 54.9325 15.5835C62.2828 15.551 69.633 15.5445 76.9768 15.577C79.8936 15.59 81.5011 17.0392 81.4946 19.4826C81.4816 21.9261 79.8677 23.3298 76.9444 23.3493C73.3082 23.3818 69.6719 23.3558 66.0422 23.3558Z" fill="white"/>
<path d="M97.0377 19.567C96.9794 21.6726 95.1645 23.4012 93.0709 23.3427C90.9643 23.2842 89.2532 21.4711 89.3115 19.3656C89.3698 17.2471 91.1653 15.5379 93.2718 15.5964C95.3784 15.6484 97.0961 17.4615 97.0377 19.567Z" fill="white"/>
</svg>
