<svg width="185" height="33" viewBox="0 0 185 33" fill="none" xmlns="http://www.w3.org/2000/svg">
<g clip-path="url(#clip0)">
<path d="M0 0H14.3954C17.9051 0 21.0295 0.679828 23.7545 2.02532C26.4795 3.38498 28.6053 5.297 30.1033 7.76137C31.6014 10.2399 32.3575 13.0867 32.3575 16.33C32.3575 19.5734 31.6014 22.4202 30.1033 24.8987C28.591 27.3773 26.4795 29.2893 23.7545 30.6348C21.0295 31.9944 17.9051 32.6601 14.3954 32.6601H0V0ZM14.11 27.5472C16.5212 27.5472 18.6469 27.094 20.4874 26.1734C22.3278 25.2528 23.726 23.9498 24.7247 22.2502C25.7091 20.5506 26.2085 18.582 26.2085 16.3442C26.2085 14.1064 25.7091 12.1378 24.7247 10.4382C23.7403 8.73863 22.3278 7.43562 20.4874 6.51502C18.6469 5.59442 16.5354 5.1412 14.11 5.1412H6.12054V27.5472H14.11Z" fill="black"/>
<path d="M61.7903 22.0803H42.0876C42.43 23.9215 43.3288 25.3661 44.7983 26.4425C46.2536 27.5189 48.0655 28.0571 50.2341 28.0571C52.9876 28.0571 55.2703 27.1506 57.0537 25.3519L60.2067 28.9494C59.0796 30.2949 57.6529 31.3004 55.9266 31.9803C54.2003 32.6601 52.26 33.0142 50.0914 33.0142C47.3379 33.0142 44.8982 32.476 42.801 31.3854C40.7037 30.2949 39.0773 28.7794 37.9359 26.8391C36.7946 24.8987 36.2239 22.6893 36.2239 20.2391C36.2239 17.8172 36.7803 15.6219 37.8931 13.6815C39.0059 11.7412 40.5468 10.2258 42.5299 9.13519C44.4987 8.04464 46.7244 7.50644 49.2068 7.50644C51.6465 7.50644 53.8436 8.04464 55.7696 9.12103C57.6957 10.1974 59.208 11.6987 60.278 13.6532C61.3623 15.5936 61.9045 17.8455 61.9045 20.3949C61.8902 20.7631 61.8617 21.3296 61.7903 22.0803ZM44.4131 13.7949C43.1148 14.8996 42.3159 16.3725 42.0448 18.2137H56.2975C56.0407 16.415 55.2846 14.9421 53.9863 13.8232C52.7022 12.7043 51.1043 12.1378 49.1926 12.1378C47.3093 12.1378 45.7114 12.6901 44.4131 13.7949Z" fill="black"/>
<path d="M90.5811 7.74722L79.8095 32.6743H73.7461L62.9745 7.74722H69.095L76.8991 26.2301L84.9456 7.74722H90.5811Z" fill="black"/>
<path d="M95.7029 32.2069C93.7626 31.6828 92.2075 31.003 91.0519 30.1957L93.3061 25.7627C94.4332 26.5133 95.7885 27.1082 97.3722 27.5614C98.9558 28.0146 100.511 28.2412 102.052 28.2412C105.561 28.2412 107.316 27.3206 107.316 25.4936C107.316 24.6155 106.874 24.0206 105.975 23.6665C105.076 23.3266 103.65 23.0009 101.667 22.6893C99.5978 22.3777 97.9143 22.0236 96.616 21.6129C95.3177 21.2022 94.1906 20.494 93.2347 19.4884C92.2788 18.4828 91.7938 17.0665 91.7938 15.2678C91.7938 12.9026 92.7925 11.0189 94.7756 9.60258C96.7729 8.18627 99.4551 7.47812 102.836 7.47812C104.563 7.47812 106.289 7.6764 108.015 8.05881C109.742 8.44121 111.154 8.96524 112.253 9.61675L109.998 14.0498C107.858 12.8034 105.462 12.1803 102.808 12.1803C101.082 12.1803 99.769 12.4352 98.8845 12.9451C97.9856 13.4549 97.5434 14.1348 97.5434 14.9704C97.5434 15.9052 98.0142 16.5708 98.9843 16.9532C99.9402 17.3356 101.424 17.7039 103.421 18.0438C105.433 18.3554 107.074 18.7094 108.358 19.1202C109.642 19.5309 110.755 20.2107 111.668 21.1738C112.595 22.1369 113.052 23.5107 113.052 25.2811C113.052 27.618 112.039 29.4876 109.998 30.8897C107.958 32.2919 105.19 32.9858 101.681 32.9858C99.6406 33 97.6432 32.7451 95.7029 32.2069Z" fill="black"/>
<path d="M119.643 0H123.124V32.6742H119.643V0Z" fill="black"/>
<path d="M153.142 10.6223C154.982 12.4069 155.895 15.0129 155.895 18.4404V32.6743H152.557V18.7661C152.557 16.2168 151.915 14.2622 150.631 12.9309C149.347 11.5996 147.506 10.9198 145.124 10.9198C142.456 10.9198 140.344 11.7129 138.804 13.2708C137.248 14.8429 136.478 17.0099 136.478 19.7859V32.6743H133.14V8.12963H136.335V12.6618C137.248 11.1747 138.504 10.0133 140.116 9.1777C141.728 8.35624 143.597 7.94551 145.737 7.94551C148.847 7.93134 151.316 8.83778 153.142 10.6223Z" fill="black"/>
<path d="M168.764 31.3288C166.838 30.2665 165.326 28.7794 164.227 26.8674C163.129 24.9554 162.587 22.8026 162.587 20.409C162.587 18.0155 163.129 15.8627 164.227 13.9648C165.326 12.067 166.838 10.594 168.764 9.53176C170.69 8.46953 172.873 7.9455 175.327 7.9455C177.453 7.9455 179.365 8.35623 181.034 9.17768C182.717 9.99914 184.03 11.203 185.014 12.7893L182.518 14.4747C181.704 13.2567 180.663 12.3502 179.407 11.7412C178.152 11.1322 176.796 10.8348 175.313 10.8348C173.529 10.8348 171.917 11.2313 170.49 12.0245C169.064 12.8176 167.951 13.9506 167.152 15.4094C166.353 16.8682 165.954 18.5395 165.954 20.409C165.954 22.3069 166.353 23.9781 167.152 25.4227C167.951 26.8674 169.064 27.9863 170.49 28.7794C171.917 29.5725 173.529 29.9691 175.313 29.9691C176.782 29.9691 178.152 29.6717 179.407 29.0768C180.663 28.482 181.69 27.5897 182.518 26.3717L185.014 28.0571C184.044 29.6433 182.717 30.8472 181.02 31.6687C179.322 32.4901 177.424 32.9009 175.327 32.9009C172.873 32.915 170.69 32.391 168.764 31.3288Z" fill="black"/>
</g>
<defs>
<clipPath id="clip0">
<rect width="185" height="33" fill="white"/>
</clipPath>
</defs>
</svg>
