<svg width="33" height="74" viewBox="0 0 33 74" fill="none" xmlns="http://www.w3.org/2000/svg">
<path d="M0.371323 27.2044C0.369984 30.4514 0.361961 33.6984 0.372662 36.9441C0.400749 45.1264 5.79249 51.8234 13.636 53.4299C22.6071 55.268 31.5955 48.7331 32.8047 39.4867C32.8782 38.9253 32.9505 38.3571 32.9505 37.793C32.9598 30.6858 33.0722 23.5772 32.9237 16.4741C32.7498 8.21822 26.1008 1.23093 18.1249 0.64638C9.64201 0.025045 2.21315 5.70427 0.688324 14.016C0.481003 15.1456 0.400749 16.3133 0.386036 17.4647C0.345909 20.7103 0.372658 23.9574 0.371323 27.2044ZM30.7034 27.1076C30.6953 27.1076 30.6873 27.1076 30.6793 27.1076C30.6793 30.6939 30.793 34.2857 30.6565 37.8679C30.3181 46.7724 21.755 53.186 13.2789 50.9745C6.93611 49.3204 2.67461 43.7188 2.6492 36.9386C2.62512 30.4228 2.63716 23.9069 2.65188 17.3911C2.65321 16.5545 2.71875 15.711 2.83512 14.8826C3.86906 7.49606 11.1147 1.9599 18.3656 2.99955C25.63 4.0392 30.686 9.95415 30.702 17.4361C30.7087 20.6599 30.7034 23.8838 30.7034 27.1076Z" fill="#B7B7B7"/>
<path d="M16.6653 71.3431C14.1439 69.2625 11.6347 67.1913 9.12539 65.1216C8.36431 64.4934 7.60725 63.8571 6.83815 63.2385C6.21751 62.7398 5.54873 62.782 5.12338 63.3216C4.69402 63.8653 4.793 64.5302 5.41497 65.0439C8.89131 67.919 12.3717 70.7886 15.856 73.6541C16.4151 74.1146 16.9274 74.116 17.4905 73.6541C20.9749 70.7886 24.4539 67.919 27.9303 65.0426C28.5616 64.5207 28.6552 63.8721 28.2219 63.3216C27.7858 62.7684 27.113 62.7439 26.4563 63.2835C23.4066 65.7933 20.361 68.3087 17.3126 70.8213C17.1067 70.9929 16.8953 71.1578 16.6653 71.3431Z" fill="#B7B7B7"/>
<path d="M18.9138 15.6954C18.9138 14.8111 18.9231 13.9281 18.9111 13.0438C18.8924 11.6554 17.9748 10.6852 16.6881 10.677C15.4 10.6688 14.4476 11.639 14.4356 13.0138C14.4209 14.8043 14.4182 16.5947 14.4369 18.3851C14.4516 19.76 15.4133 20.7356 16.6907 20.7233C17.9694 20.7124 18.891 19.7327 18.9098 18.347C18.9231 17.4627 18.9138 16.5783 18.9138 15.6954Z" fill="#B7B7B7"/>
</svg>
